<svg width="1359" height="462" viewBox="0 0 1359 462" fill="none" xmlns="http://www.w3.org/2000/svg">
<rect opacity="0.1" x="201.609" y="394.338" width="285.118" height="20.5794" rx="10.2897" transform="rotate(-135 201.609 394.338)" fill="url(#paint0_linear)"/>
<rect opacity="0.4" x="1128.69" y="260.19" width="285.118" height="40.5834" rx="20.2917" transform="rotate(-45 1128.69 260.19)" fill="url(#paint1_linear)" fill-opacity="0.5"/>
<circle opacity="0.6" cx="216" cy="25" r="25" fill="url(#paint2_linear)"/>
<circle opacity="0.5" cx="1303.5" cy="376.5" r="30.5" fill="url(#paint3_linear)"/>
<circle opacity="0.3" cx="793.5" cy="42.5" r="15.5" fill="url(#paint4_linear)"/>
<ellipse opacity="0.1" cx="1061" cy="158.5" rx="11" ry="11.5" fill="url(#paint5_linear)"/>
<path opacity="0.3" d="M482.979 453.584C520.537 463.226 563.495 445.326 544.328 422.019C526.062 399.808 488.556 424.817 482.979 453.584Z" fill="url(#paint6_linear)"/>
<path opacity="0.2" d="M590.837 207.035C595.068 231.526 621.398 254.131 632.898 238.196C643.857 223.01 613.9 205.027 590.837 207.035Z" fill="url(#paint7_linear)"/>
<defs>
<linearGradient id="paint0_linear" x1="176.6" y1="398.202" x2="353.075" y2="398.645" gradientUnits="userSpaceOnUse">
<stop stop-color="white"/>
<stop offset="1" stop-color="white" stop-opacity="0"/>
</linearGradient>
<linearGradient id="paint1_linear" x1="1413.67" y1="281.503" x2="1254.48" y2="284.198" gradientUnits="userSpaceOnUse">
<stop stop-color="white"/>
<stop offset="1" stop-color="#B462D3" stop-opacity="0.1"/>
</linearGradient>
<linearGradient id="paint2_linear" x1="216" y1="0" x2="216" y2="50" gradientUnits="userSpaceOnUse">
<stop stop-color="#FFE177"/>
<stop offset="1" stop-color="#FEB137"/>
</linearGradient>
<linearGradient id="paint3_linear" x1="1303.5" y1="346" x2="1303.5" y2="407" gradientUnits="userSpaceOnUse">
<stop stop-color="#FFE177"/>
<stop offset="1" stop-color="#FEB137"/>
</linearGradient>
<linearGradient id="paint4_linear" x1="809" y1="27" x2="772.981" y2="50.2124" gradientUnits="userSpaceOnUse">
<stop stop-color="#929CFF"/>
<stop offset="0.593" stop-color="#737FF1"/>
<stop offset="1" stop-color="#6F79DF"/>
</linearGradient>
<linearGradient id="paint5_linear" x1="1061" y1="147" x2="1061" y2="170" gradientUnits="userSpaceOnUse">
<stop stop-color="white"/>
<stop offset="1" stop-color="white" stop-opacity="0"/>
</linearGradient>
<linearGradient id="paint6_linear" x1="555.067" y1="426.389" x2="478.697" y2="440.815" gradientUnits="userSpaceOnUse">
<stop stop-color="#44A85F"/>
<stop offset="1" stop-color="#48D16E"/>
</linearGradient>
<linearGradient id="paint7_linear" x1="577.416" y1="219.421" x2="635.696" y2="229.698" gradientUnits="userSpaceOnUse">
<stop stop-color="#FE8A6B"/>
<stop offset="0.5" stop-color="#FC7B58"/>
<stop offset="1" stop-color="#EC5D36"/>
</linearGradient>
</defs>
</svg>
