<svg width="51" height="50" viewBox="0 0 51 50" fill="none" xmlns="http://www.w3.org/2000/svg">
<ellipse cx="25.8646" cy="25" rx="24.9826" ry="25" fill="#F26944" fill-opacity="0.2"/>
<mask id="mask0" mask-type="alpha" maskUnits="userSpaceOnUse" x="1" y="0" width="50" height="50">
<ellipse cx="25.9826" cy="25" rx="24.9826" ry="25" fill="#F26944"/>
</mask>
<g mask="url(#mask0)">
<path d="M39.2742 45.9264V49.3104C39.2742 49.6914 38.9656 50 38.5847 50H13.4153C13.0343 50 12.7257 49.6914 12.7257 49.3104V45.9264C12.7257 42.3759 15.6038 39.4996 19.1551 39.4987C20.4101 39.4978 21.5152 38.8522 22.1513 37.873C22.7904 36.8909 22.7245 36.0369 22.7245 35.3466L22.7374 35.3147C19.643 34.0338 17.4665 30.9851 17.4665 27.4277V27.1579C16.2378 27.1579 15.3116 26.1869 15.3116 25.0427V21.4603C15.284 20.2131 15.3409 15.8145 18.5181 12.7519C22.2125 9.19114 28.067 9.48248 32.3078 11.3874C32.4457 11.4495 32.4414 11.6469 32.3018 11.7046L31.1959 12.1597C31.0304 12.2278 31.0657 12.4718 31.2433 12.4907L31.7803 12.5485C34.3515 12.8235 36.74 14.2198 38.2209 16.5437C38.2606 16.6066 38.2493 16.7023 38.1985 16.7566C37.2848 17.7229 36.7745 19.0055 36.7745 20.3389V25.0427C36.7745 26.2106 35.8272 27.1579 34.6593 27.1579H34.5334V27.4277C34.5334 30.9851 32.357 34.0338 29.2625 35.3147L29.2754 35.3466C29.2754 36.017 29.2041 36.8826 29.8486 37.873C30.4848 38.8522 31.5898 39.4978 32.8448 39.4987C36.3961 39.4996 39.2742 42.3759 39.2742 45.9264Z" fill="#FFDFBA"/>
<path d="M39.2742 45.9264V49.3105C39.2742 49.6913 38.9655 50 38.5847 50H13.4153C13.0345 50 12.7257 49.6913 12.7257 49.3105V45.9264C12.7257 42.376 15.6042 39.5 19.1547 39.4987C20.41 39.4983 21.5153 38.8519 22.1513 37.873C24.3712 39.7695 27.6274 39.7707 29.8486 37.873C30.4845 38.8519 31.5899 39.4983 32.8453 39.4987C36.3957 39.5 39.2742 42.376 39.2742 45.9264Z" fill="#F26944"/>
<path d="M38.2206 16.5441C38.2606 16.6069 38.2494 16.7021 38.1982 16.7562C37.2848 17.7232 36.7745 19.0053 36.7745 20.3389V25.0426C36.7745 26.1104 35.9701 27.1579 34.5334 27.1579V21.8335C34.5334 19.5485 32.6811 17.6961 30.396 17.6961H21.604C19.3189 17.6961 17.4665 19.5485 17.4665 21.8335V27.1579C16.2378 27.1579 15.3116 26.1869 15.3116 25.0426V21.4603C15.284 20.213 15.3409 15.8144 18.5181 12.7519C22.2122 9.191 28.0673 9.48252 32.3075 11.3876C32.4454 11.4496 32.4418 11.6471 32.3019 11.7047L31.1959 12.16C31.0306 12.2281 31.0654 12.4717 31.2431 12.4908L31.7803 12.5484C34.352 12.8232 36.7399 14.2195 38.2206 16.5441Z" fill="#42434D"/>
<path d="M34.5334 27.4274C34.5334 32.142 30.7108 35.9608 26 35.9608C21.5616 35.9608 17.4666 32.5103 17.4666 27.1576V21.8332C17.4666 19.5482 19.3189 17.6958 21.604 17.6958H30.396C32.6811 17.6958 34.5334 19.5482 34.5334 21.8332V27.4274Z" fill="#FFEBD2"/>
<path d="M32.9819 48.5344H30.9132C30.5324 48.5344 30.2236 48.2257 30.2236 47.8448C30.2236 47.464 30.5324 47.1553 30.9132 47.1553H32.9819C33.3627 47.1553 33.6715 47.464 33.6715 47.8448C33.6715 48.2257 33.3628 48.5344 32.9819 48.5344Z" fill="white"/>
<path d="M24.0678 32.9381C25.4708 33.8159 24.3645 35.9685 22.8287 35.352C19.6709 34.0845 17.4666 31.0073 17.4666 27.4278V21.8336C17.4666 20.9644 17.7346 20.1578 18.1925 19.4918C18.754 18.6753 20.0524 19.036 20.0524 20.1097V25.7038C20.0524 28.8509 21.7067 31.4609 24.0678 32.9381Z" fill="#FFF3E4"/>
<path d="M29.3729 36.7617C27.2493 37.6507 24.9155 37.7196 22.6271 36.7617C22.744 36.2768 22.7245 35.9627 22.7245 35.3463L22.7375 35.3145C24.8133 36.1761 27.1827 36.1778 29.2625 35.3145L29.2755 35.3463C29.2755 35.9629 29.256 36.2769 29.3729 36.7617Z" fill="#FFD6A6"/>
<path d="M22.6281 41.581C22.3094 41.6812 21.9675 41.7365 21.601 41.7397C18.0414 41.771 15.1392 44.5856 15.1392 48.1453V48.7933C15.1392 49.4598 14.5989 50 13.9325 50H13.4153C13.0345 50 12.7257 49.6913 12.7257 49.3105V45.9264C12.7257 42.3759 15.6042 39.5 19.1547 39.4987C20.41 39.4983 21.5153 38.8519 22.1513 37.873C22.4076 38.092 22.6821 38.2888 22.9712 38.4611C24.2429 39.2188 24.0402 41.137 22.6281 41.581Z" fill="#F27D5D"/>
<path d="M29.3719 41.581C29.6906 41.6812 30.0325 41.7365 30.399 41.7397C33.9586 41.771 36.8608 44.5856 36.8608 48.1453V48.7933C36.8608 49.4598 37.4011 50 38.0675 50H38.5847C38.9655 50 39.2743 49.6913 39.2743 49.3105V45.9264C39.2743 42.3759 36.3958 39.5 32.8453 39.4987C31.59 39.4983 30.4847 38.8519 29.8487 37.873C29.5924 38.092 29.3179 38.2888 29.0288 38.4611C27.7572 39.2188 27.9598 41.137 29.3719 41.581Z" fill="#F27D5D"/>
<path d="M32.3018 11.7046C31.2883 12.1217 31.1438 12.2137 30.7927 12.1592C25.1318 11.2817 20.1652 13.624 18.4785 19.1227V19.1236C17.8475 19.8493 17.4665 20.7975 17.4665 21.8336V25.0679C17.4665 26.4633 15.3116 26.5604 15.3116 25.0427V21.4603C15.284 20.2131 15.3409 15.8145 18.5181 12.7519C22.2125 9.19114 28.067 9.48248 32.3078 11.3874C32.4457 11.4495 32.4414 11.6469 32.3018 11.7046Z" fill="#4D4E59"/>
</g>
</svg>
