<svg width="20" height="20" viewBox="0 0 20 20" fill="none" xmlns="http://www.w3.org/2000/svg">
<path d="M5.78129 13.8025C5.64529 13.8025 5.50929 13.7538 5.40588 13.6556C5.19833 13.46 5.19833 13.1428 5.40588 12.9472L7.33183 11.1318L5.40517 9.3158C5.19763 9.12018 5.19763 8.80304 5.40517 8.60741C5.61271 8.41179 5.94917 8.41179 6.15671 8.60741L8.45879 10.7773C8.66633 10.9729 8.66633 11.2901 8.45879 11.4857L6.15671 13.6556C6.05329 13.7538 5.91729 13.8025 5.78129 13.8025Z" fill="#444444" fill-opacity="0.8"/>
<path d="M13.2188 13.8024H10.0312C9.738 13.8024 9.5 13.5781 9.5 13.3017C9.5 13.0252 9.738 12.8009 10.0312 12.8009H13.2188C13.512 12.8009 13.75 13.0252 13.75 13.3017C13.75 13.5781 13.512 13.8024 13.2188 13.8024Z" fill="#444444" fill-opacity="0.8"/>
<path d="M16.0521 17.1407H2.94792C1.87337 17.1407 1 16.3175 1 15.3047V4.28822C1 3.27538 1.87337 2.45215 2.94792 2.45215H16.0521C17.1266 2.45215 18 3.27538 18 4.28822V15.3047C18 16.3175 17.1266 17.1407 16.0521 17.1407ZM2.94792 3.45364C2.45987 3.45364 2.0625 3.8282 2.0625 4.28822V15.3047C2.0625 15.7647 2.45987 16.1393 2.94792 16.1393H16.0521C16.5401 16.1393 16.9375 15.7647 16.9375 15.3047V4.28822C16.9375 3.8282 16.5401 3.45364 16.0521 3.45364H2.94792Z" fill="#444444" fill-opacity="0.8"/>
<path d="M17.4688 5.79041H1.53125C1.238 5.79041 1 5.56607 1 5.28966C1 5.01324 1.238 4.78891 1.53125 4.78891H17.4688C17.762 4.78891 18 5.01324 18 5.28966C18 5.56607 17.762 5.79041 17.4688 5.79041Z" fill="#444444" fill-opacity="0.8"/>
</svg>
