<svg width="1435" height="621" viewBox="0 0 1435 621" fill="none" xmlns="http://www.w3.org/2000/svg">
<g opacity="0.2">
<g opacity="0.4">
<path d="M843.196 560.252L846.611 550.293L839.497 542.467C841.489 538.911 844.05 535.638 846.753 532.65L856.286 537.203L864.822 531.085L863.684 520.557C867.241 518.992 871.082 517.711 874.924 517L879.904 526.248L890.29 526.39L895.554 517.142C899.538 517.996 903.521 519.276 907.078 520.984L905.656 531.512L914.05 537.772L923.725 533.362C926.428 536.35 928.704 539.764 930.696 543.321L923.44 551.004L926.57 560.963L936.814 563.098C937.099 565.089 937.099 567.366 937.099 569.5C937.099 571.492 936.956 573.341 936.672 575.333L926.286 577.183L922.871 587.142L929.985 594.967C927.993 598.524 925.432 601.939 922.729 604.785L913.196 600.232L904.66 606.35L905.798 616.878C902.099 618.585 898.257 619.724 894.131 620.577L889.151 611.329L878.765 611.187L873.501 620.435C869.517 619.581 865.676 618.301 861.977 616.451L863.399 605.923L855.005 599.663L845.33 604.073C842.627 601.085 840.351 597.671 838.359 594.114L845.615 586.431L842.627 576.472L832.383 574.337C832.241 572.346 832.099 570.211 832.099 568.22C832.099 566.228 832.241 564.093 832.525 562.244L843.196 560.252ZM862.546 595.252C876.916 607.63 898.684 605.923 911.062 591.268C923.44 576.614 921.733 554.846 907.363 542.467C892.851 530.089 871.082 531.939 858.704 546.451C846.326 561.106 848.034 583.016 862.546 595.252ZM905.086 545.171C918.176 556.411 919.599 576.045 908.501 589.276C897.404 602.366 877.769 603.931 864.68 592.833C851.591 581.736 850.168 561.959 861.265 548.87C872.505 535.638 892.139 533.931 905.086 545.171ZM869.66 587C879.477 595.394 894.416 594.256 902.952 584.297C911.347 574.337 910.208 559.398 900.391 551.004C890.574 542.467 875.635 543.748 867.241 553.565C858.562 563.524 859.7 578.463 869.66 587Z" fill="white"/>
</g>
<g opacity="0.7">
<g opacity="0.4">
<path d="M494.429 124.817H491.621C491.29 123.826 491.125 122.835 490.795 122.008C490.629 121.017 490.464 120.026 490.299 119.035L492.942 117.713C495.916 116.226 496.082 112.096 493.273 110.443L490.795 108.956C491.29 106.974 491.786 105.156 492.612 103.339L495.421 103.504C498.725 103.669 500.873 100.2 499.386 97.3912L498.064 94.913C499.386 93.426 500.873 92.1043 502.36 90.9478L504.838 92.6C507.481 94.4173 511.282 92.4347 511.282 89.1304V86.3217C512.273 85.9913 513.264 85.8261 514.09 85.4957C515.082 85.3304 516.073 85.1652 517.064 85L518.386 87.6435C519.873 90.6174 524.003 90.7826 525.655 87.9739L527.142 85.4957C529.125 85.8261 530.942 86.487 532.76 87.313L532.594 90.2869C532.429 93.5913 535.899 95.7391 538.707 94.2521L541.186 92.9304C542.673 94.2521 543.994 95.7391 545.151 97.226L543.499 99.7043C541.681 102.513 543.664 106.148 546.968 106.148L549.777 106.313C550.107 107.304 550.273 108.13 550.603 109.122C550.768 110.113 550.933 111.104 551.099 112.096L548.455 113.417C545.481 114.904 545.316 119.035 548.125 120.687L550.603 122.174C550.273 124.156 549.612 125.974 548.786 127.791L545.977 127.626C542.673 127.461 540.525 130.93 542.012 133.739L543.333 136.217C542.012 137.704 540.525 139.026 539.038 140.182L536.725 138.53C533.916 136.713 530.281 138.695 530.281 141.834L530.116 144.808C529.125 145.139 528.299 145.304 527.308 145.634C526.316 145.8 525.325 145.965 524.334 146.13L523.012 143.487C521.525 140.513 517.395 140.348 515.742 143.156L514.255 145.634C512.273 145.139 510.455 144.643 508.638 143.817L508.803 141.008C508.968 137.704 505.499 135.556 502.69 137.043L500.212 138.365C498.725 137.043 497.403 135.556 496.247 133.904L497.899 131.426C499.716 128.617 497.734 124.817 494.429 124.817ZM503.021 125.148C508.473 134.895 521.029 138.365 530.612 132.913C540.36 127.461 543.829 114.904 538.212 105.156C532.76 95.4086 520.368 91.9391 510.621 97.3912C501.038 103.009 497.569 115.4 503.021 125.148ZM512.108 99.8695C520.534 95.0782 531.273 98.0521 536.064 106.643C540.855 115.069 537.881 125.808 529.455 130.6C521.029 135.391 510.29 132.417 505.499 123.826C500.708 115.4 503.682 104.661 512.108 99.8695ZM513.594 101.026C510.125 102.678 507.481 105.487 506.16 108.956C505.664 109.948 506.325 111.269 507.482 111.435L517.56 112.922C517.725 112.591 518.055 112.261 518.386 112.096L516.238 102.183C515.742 101.026 514.586 100.53 513.594 101.026ZM522.847 114.078C522.186 112.922 520.699 112.426 519.542 113.087C518.386 113.748 518.055 115.235 518.551 116.391C519.212 117.548 520.699 118.043 521.855 117.382C523.012 116.722 523.508 115.235 522.847 114.078ZM521.029 99.2086C519.873 99.2086 519.047 100.2 519.377 101.356L521.525 111.269C521.69 111.269 521.855 111.269 521.855 111.435C522.021 111.435 522.186 111.6 522.351 111.6L532.594 104.826C529.786 101.356 525.49 99.3738 521.029 99.2086ZM535.238 121.678C536.56 118.704 536.89 115.235 536.229 111.93C536.064 111.104 535.734 110.278 535.568 109.617C535.073 108.626 533.916 108.13 532.925 108.791L524.664 114.409C524.829 114.904 524.829 115.565 524.829 116.061L532.76 122.504C533.586 123 534.907 122.669 535.238 121.678ZM516.899 130.765C519.212 131.261 521.69 131.426 524.168 130.93C526.647 130.435 528.794 129.278 530.612 127.791C531.438 127.13 531.438 125.808 530.612 125.148L522.681 118.869C521.855 119.365 521.029 119.53 520.038 119.365L515.742 128.452C515.412 129.278 515.908 130.435 516.899 130.765ZM504.838 116.391C504.838 117.052 505.003 117.878 505.168 118.539C505.995 121.843 507.647 124.817 510.125 126.965C510.951 127.791 512.273 127.461 512.768 126.469L517.229 117.217C517.064 116.887 516.899 116.391 516.734 116.061L506.821 114.574C505.829 114.409 504.838 115.4 504.838 116.391Z" fill="white"/>
</g>
</g>
<g opacity="0.2">
<path d="M976.221 113.547L972.751 103.8L962.343 102.148C961.682 98.1823 961.682 94.0519 961.847 90.0867L972.09 87.7737L974.899 77.6955L967.464 70.2607C969.282 66.7912 971.43 63.4869 974.073 60.513L983.656 64.6434L991.751 58.1999L990.099 47.7913C993.734 45.9739 997.534 44.487 1001.5 43.6609L1006.95 52.7478L1017.36 52.4173L1022.15 43C1026.12 43.6609 1029.92 44.8174 1033.72 46.3043L1032.89 56.8782L1041.48 62.6608L1050.9 57.8695C1052.39 59.3564 1053.71 61.0086 1055.03 62.6608C1056.19 64.1477 1057.34 65.7999 1058.33 67.452L1051.39 75.3824L1055.03 85.1302L1065.44 86.7824C1066.1 90.7476 1066.26 94.878 1065.93 99.0084L1055.69 101.321L1052.88 111.4L1060.32 118.834C1058.5 122.469 1056.19 125.773 1053.54 128.913L1043.96 124.782L1035.86 131.226L1037.52 141.634C1033.88 143.452 1030.08 144.773 1026.12 145.765L1020.66 136.678L1010.26 137.008L1005.46 146.426C1001.5 145.765 997.534 144.608 993.899 142.956L994.725 132.547L986.134 126.765L976.717 131.556C975.23 130.069 973.908 128.582 972.751 126.93C971.43 125.278 970.438 123.626 969.282 121.973L976.221 113.547ZM1013.06 128.747C1031.9 129.408 1047.76 114.539 1048.26 95.5388C1048.75 76.539 1033.88 60.6782 1015.05 60.0173C996.212 59.5217 980.351 74.3911 979.856 93.391C979.195 112.226 994.064 128.087 1013.06 128.747ZM1014.72 63.3216C1031.73 63.8173 1045.28 78.1911 1044.79 95.3736C1044.29 112.391 1030.08 125.939 1013.06 125.443C996.047 124.947 982.499 110.574 982.995 93.391C983.49 76.2085 997.699 62.826 1014.72 63.3216ZM1013.23 117.843C1026.12 118.174 1036.86 108.095 1037.19 95.0432C1037.52 82.1563 1027.27 71.252 1014.39 70.9216C1001.5 70.4259 990.76 80.6694 990.264 93.5563C990.099 106.608 1000.34 117.513 1013.23 117.843Z" fill="white"/>
</g>
<path d="M18.7832 405.034L14.1571 392.478L0.774551 390.33C-0.0515289 385.208 -0.216736 379.921 0.278915 374.8L13.3311 371.826L16.9658 358.939L7.38321 349.356C9.69624 344.895 12.505 340.765 15.8093 336.8L28.2005 342.087L38.6092 333.826L36.4614 320.443C41.0874 318.13 46.0439 316.313 51.0004 314.991L57.9395 326.556L71.322 326.061L77.435 314C82.5567 314.826 87.5132 316.313 92.3045 318.296L91.3133 331.843L102.383 339.278L114.444 333.165C116.261 334.982 118.078 337.13 119.896 339.278C121.383 341.261 122.87 343.243 124.191 345.391L115.435 355.635L120.061 368.191L133.278 370.339C134.104 375.461 134.27 380.747 133.939 386.034L120.887 389.008L117.252 401.895L126.835 411.478C124.522 416.104 121.548 420.399 118.078 424.365L105.687 419.078L95.1132 427.338L97.261 440.721C92.6349 443.034 87.6785 444.851 82.722 446.008L75.7829 434.443L62.4004 434.938L56.2873 446.999C51.1656 446.173 46.2091 444.686 41.4179 442.538L42.5744 429.156L31.5049 421.556L19.4441 427.669C17.6267 425.852 15.8093 423.869 14.3223 421.721C12.6702 419.739 11.1832 417.591 10.0267 415.443L18.7832 405.034ZM66.035 424.53C90.3219 425.356 110.478 406.191 111.139 381.739C111.8 357.287 92.6349 336.965 68.3481 336.139C44.0613 335.478 23.9049 354.643 23.0788 378.93C22.5831 403.382 41.7482 423.869 66.035 424.53ZM68.3481 340.6C90.3219 341.261 107.504 359.765 106.844 381.739C106.183 403.713 88.0088 420.895 66.035 420.234C44.2265 419.573 26.8788 401.069 27.5396 379.095C28.2005 357.121 46.3743 339.774 68.3481 340.6ZM66.3655 410.652C82.8871 411.147 96.7654 398.095 97.261 381.408C97.5914 364.721 84.5393 350.843 68.0177 350.348C51.3308 349.687 37.6178 362.904 37.1222 379.426C36.7917 396.113 49.8439 409.991 66.3655 410.652Z" fill="white" fill-opacity="0.4"/>
<path opacity="0.3" d="M566.786 163.985C559.674 163.985 553.907 158.219 553.907 151.106C553.907 143.994 559.674 138.227 566.786 138.227C573.899 138.227 579.666 143.994 579.666 151.106C579.666 158.219 573.899 163.985 566.786 163.985Z" fill="white"/>
<path opacity="0.5" d="M360.722 143.181C355.251 143.181 350.815 138.745 350.815 133.274C350.815 127.802 355.251 123.367 360.722 123.367C366.193 123.367 370.629 127.802 370.629 133.274C370.629 138.745 366.193 143.181 360.722 143.181Z" fill="white"/>
<path opacity="0.7" d="M804.058 354.199C798.313 354.199 793.656 349.763 793.656 344.292C793.656 338.82 798.313 334.385 804.058 334.385C809.803 334.385 814.46 338.82 814.46 344.292C814.46 349.763 809.803 354.199 804.058 354.199Z" fill="white"/>
<path d="M64.0092 169.93C58.8114 169.93 54.5977 165.716 54.5977 160.518C54.5977 155.32 58.8114 151.106 64.0092 151.106C69.2071 151.106 73.4209 155.32 73.4209 160.518C73.4209 165.716 69.2071 169.93 64.0092 169.93Z" fill="white"/>
<path d="M262.148 258.101C256.95 258.101 252.736 253.888 252.736 248.69C252.736 243.492 256.95 239.278 262.148 239.278C267.346 239.278 271.56 243.492 271.56 248.69C271.56 253.888 267.346 258.101 262.148 258.101Z" fill="white"/>
<g opacity="0.5">
<path d="M758.506 209.167L753.812 204.473C754.783 202.369 755.916 200.265 757.049 198.323C758.182 196.219 759.477 194.439 760.771 192.497L767.245 194.439C774.528 196.543 781.326 189.907 779.222 182.462L777.442 175.988C781.164 173.399 785.21 171.133 789.418 169.191L793.95 174.046C799.291 179.549 808.354 177.121 810.297 169.838L811.915 163.364C816.447 162.879 820.978 162.879 825.672 163.364L827.129 169.838C828.909 177.121 838.134 179.711 843.313 174.208L848.007 169.514C850.111 170.485 852.053 171.618 854.157 172.751C856.099 173.884 858.041 175.179 859.983 176.474L858.041 182.948C855.937 190.231 862.573 197.028 869.856 194.924L876.33 193.144C878.92 196.866 881.185 200.751 882.966 205.121L878.11 209.814C872.608 214.993 875.035 224.218 882.318 226.161L888.792 227.779C889.278 232.311 889.116 237.004 888.792 241.536L882.318 243.155C875.035 245.097 872.446 254.16 877.948 259.501L882.642 264.195C881.671 266.299 880.538 268.241 879.405 270.183C878.272 272.287 876.977 274.067 875.683 276.009L869.209 274.067C861.926 271.963 855.128 278.599 857.232 286.044L859.012 292.518C855.29 295.107 851.406 297.373 847.198 299.315L842.666 294.46C837.487 288.957 828.262 291.385 826.319 298.668L824.701 305.142C820.169 305.627 815.637 305.466 811.106 304.98L809.487 298.506C807.707 291.061 798.482 288.634 793.303 293.974L788.609 298.668C786.667 297.697 784.563 296.564 782.621 295.431C780.679 294.298 778.736 293.003 776.794 291.709L778.736 285.235C780.84 277.952 774.205 271.154 766.922 273.258L760.448 275.038C757.858 271.316 755.592 267.27 753.812 263.062L758.667 258.368C764.17 253.027 761.743 243.802 754.459 241.86L747.986 240.241C747.5 235.71 747.662 231.178 748.147 226.484L754.621 224.866C761.419 223.733 763.847 214.508 758.506 209.167ZM772.424 223.409C766.274 248.657 781.812 274.229 806.898 280.217C831.984 286.206 857.394 270.669 863.544 245.259C869.694 220.011 854.157 194.601 829.071 188.45C803.985 182.462 778.575 198.161 772.424 223.409ZM827.614 194.762C849.302 199.941 862.735 221.953 857.394 243.802C852.215 265.651 830.204 279.246 808.516 273.905C786.829 268.726 773.396 246.715 778.736 224.866C783.916 203.017 805.927 189.583 827.614 194.762ZM828.423 198.97C820.007 196.543 811.106 197.19 803.337 200.589C800.909 201.56 800.1 204.797 801.719 206.739L816.285 225.028C817.094 224.866 818.065 224.866 818.874 224.866L830.689 204.635C832.146 202.531 831.013 199.78 828.423 198.97ZM823.406 235.71C824.215 232.635 822.273 229.559 819.36 228.912C816.447 228.265 813.372 230.045 812.562 233.12C811.915 236.033 813.695 239.108 816.609 239.918C819.684 240.565 822.759 238.785 823.406 235.71ZM843.799 207.872C841.857 206.092 838.943 206.577 837.487 208.843L825.672 229.074C825.834 229.398 825.996 229.559 826.158 229.883C826.319 230.207 826.481 230.692 826.643 231.016L854.804 235.548C855.128 225.19 851.244 215.155 843.799 207.872ZM832.631 268.241C839.591 265.166 845.579 260.148 849.625 253.027C850.596 251.247 851.406 249.628 852.215 247.848C853.186 245.42 851.567 242.831 849.14 242.345L826.319 238.623C825.672 239.756 824.863 240.889 823.73 241.698L827.129 265.004C827.452 267.755 830.204 269.212 832.631 268.241ZM787.314 254.646C790.389 259.177 794.436 263.224 799.453 266.137C804.47 269.05 809.811 270.669 815.314 271.154C817.903 271.316 820.007 269.05 819.522 266.461L816.123 243.478C814.019 242.993 812.077 241.86 810.782 240.079L789.256 248.657C786.829 249.628 785.858 252.542 787.314 254.646ZM789.256 211.433C788.285 212.727 787.314 214.184 786.343 215.802C782.297 222.762 780.84 230.369 781.488 237.814C781.65 240.565 784.401 242.183 786.991 241.212L809.002 232.473C809.164 231.502 809.487 230.531 809.973 229.721L795.568 211.594C793.95 209.49 790.875 209.49 789.256 211.433Z" fill="white"/>
</g>
<path d="M1311.84 498.242L1309.78 496.184C1310.21 495.262 1310.7 494.339 1311.2 493.488C1311.7 492.565 1312.27 491.784 1312.83 490.933L1315.67 491.784C1318.86 492.707 1321.85 489.797 1320.92 486.533L1320.14 483.695C1321.77 482.559 1323.55 481.566 1325.39 480.714L1327.38 482.843C1329.72 485.256 1333.7 484.191 1334.55 480.998L1335.26 478.16C1337.24 477.947 1339.23 477.947 1341.29 478.16L1341.93 480.998C1342.71 484.191 1346.75 485.327 1349.02 482.914L1351.08 480.856C1352 481.282 1352.86 481.779 1353.78 482.275C1354.63 482.772 1355.48 483.34 1356.33 483.908L1355.48 486.746C1354.56 489.939 1357.47 492.92 1360.66 491.997L1363.5 491.217C1364.64 492.849 1365.63 494.552 1366.41 496.468L1364.28 498.526C1361.87 500.797 1362.93 504.841 1366.13 505.693L1368.96 506.403C1369.18 508.39 1369.11 510.447 1368.96 512.434L1366.13 513.144C1362.93 513.996 1361.8 517.969 1364.21 520.311L1366.27 522.369C1365.84 523.292 1365.35 524.143 1364.85 524.995C1364.35 525.917 1363.78 526.698 1363.22 527.549L1360.38 526.698C1357.18 525.775 1354.2 528.685 1355.13 531.949L1355.91 534.787C1354.28 535.923 1352.57 536.916 1350.73 537.768L1348.74 535.639C1346.47 533.226 1342.42 534.291 1341.57 537.484L1340.86 540.323C1338.88 540.535 1336.89 540.464 1334.9 540.252L1334.19 537.413C1333.41 534.149 1329.37 533.084 1327.1 535.426L1325.04 537.484C1324.19 537.058 1323.26 536.562 1322.41 536.065C1321.56 535.568 1320.71 535 1319.86 534.433L1320.71 531.594C1321.63 528.401 1318.72 525.42 1315.53 526.343L1312.69 527.124C1311.56 525.491 1310.56 523.717 1309.78 521.872L1311.91 519.814C1314.32 517.473 1313.26 513.428 1310.07 512.576L1307.23 511.867C1307.01 509.88 1307.09 507.893 1307.3 505.835L1310.14 505.125C1313.12 504.629 1314.18 500.584 1311.84 498.242ZM1317.94 504.487C1315.25 515.557 1322.06 526.769 1333.06 529.394C1344.06 532.02 1355.2 525.208 1357.89 514.067C1360.59 502.996 1353.78 491.855 1342.78 489.159C1331.78 486.533 1320.64 493.417 1317.94 504.487ZM1342.14 491.926C1351.65 494.197 1357.54 503.848 1355.2 513.428C1352.93 523.008 1343.28 528.969 1333.77 526.627C1324.26 524.356 1318.37 514.705 1320.71 505.125C1322.98 495.545 1332.63 489.656 1342.14 491.926ZM1342.5 493.771C1338.81 492.707 1334.9 492.991 1331.5 494.481C1330.43 494.907 1330.08 496.326 1330.79 497.178L1337.17 505.196C1337.53 505.125 1337.95 505.125 1338.31 505.125L1343.49 496.255C1344.13 495.333 1343.63 494.126 1342.5 493.771ZM1340.3 509.88C1340.65 508.531 1339.8 507.183 1338.52 506.899C1337.24 506.615 1335.9 507.396 1335.54 508.744C1335.26 510.022 1336.04 511.37 1337.32 511.725C1338.66 512.009 1340.01 511.228 1340.3 509.88ZM1349.24 497.674C1348.39 496.894 1347.11 497.107 1346.47 498.1L1341.29 506.97C1341.36 507.112 1341.43 507.183 1341.5 507.325C1341.57 507.467 1341.64 507.68 1341.71 507.822L1354.06 509.809C1354.2 505.267 1352.5 500.868 1349.24 497.674ZM1344.34 524.143C1347.39 522.795 1350.02 520.595 1351.79 517.473C1352.22 516.692 1352.57 515.983 1352.93 515.202C1353.35 514.137 1352.64 513.002 1351.58 512.789L1341.57 511.157C1341.29 511.654 1340.93 512.151 1340.44 512.505L1341.93 522.724C1342.07 523.93 1343.28 524.569 1344.34 524.143ZM1324.47 518.182C1325.82 520.169 1327.59 521.943 1329.79 523.221C1331.99 524.498 1334.33 525.208 1336.75 525.42C1337.88 525.491 1338.81 524.498 1338.59 523.363L1337.1 513.286C1336.18 513.073 1335.33 512.576 1334.76 511.796L1325.32 515.557C1324.26 515.983 1323.83 517.26 1324.47 518.182ZM1325.32 499.235C1324.9 499.803 1324.47 500.442 1324.05 501.151C1322.27 504.203 1321.63 507.538 1321.92 510.802C1321.99 512.009 1323.19 512.718 1324.33 512.292L1333.98 508.461C1334.05 508.035 1334.19 507.609 1334.41 507.254L1328.09 499.306C1327.38 498.384 1326.03 498.384 1325.32 499.235Z" fill="white"/>
<path d="M1348.24 39.5447L1351.37 30.439L1344.86 23.2845C1346.68 20.0325 1349.03 17.0407 1351.5 14.3089L1360.21 18.4716L1368.02 12.878L1366.98 3.25203C1370.23 1.82114 1373.74 0.650407 1377.25 0L1381.81 8.45529L1391.3 8.58537L1396.11 0.130089C1399.76 0.910577 1403.4 2.08128 1406.65 3.64226L1405.35 13.2683L1413.03 18.9919L1421.87 14.9594C1424.34 17.6911 1426.42 20.813 1428.24 24.065L1421.61 31.0894L1424.47 40.1951L1433.84 42.1463C1434.1 43.9675 1434.1 46.0488 1434.1 48C1434.1 49.8211 1433.97 51.5122 1433.71 53.3333L1424.21 55.0244L1421.09 64.1301L1427.59 71.2845C1425.77 74.5366 1423.43 77.6586 1420.96 80.2602L1412.24 76.0976L1404.44 81.691L1405.48 91.3171C1402.1 92.8781 1398.59 93.9187 1394.81 94.6992L1390.26 86.2439L1380.77 86.1138L1375.95 94.5691C1372.31 93.7886 1368.8 92.6179 1365.42 90.9268L1366.72 81.3008L1359.04 75.5772L1350.2 79.6098C1347.72 76.8781 1345.64 73.7561 1343.82 70.5041L1350.46 63.4797L1347.72 54.374L1338.36 52.4228C1338.23 50.6016 1338.1 48.6504 1338.1 46.8293C1338.1 45.0081 1338.23 43.0569 1338.49 41.3658L1348.24 39.5447ZM1365.94 71.5447C1379.07 82.8618 1398.98 81.3008 1410.29 67.9025C1421.61 54.5041 1420.05 34.6016 1406.91 23.2845C1393.64 11.9675 1373.74 13.6586 1362.42 26.9268C1351.11 40.3252 1352.67 60.3577 1365.94 71.5447ZM1404.83 25.7561C1416.8 36.0325 1418.1 53.9837 1407.95 66.0813C1397.81 78.0488 1379.85 79.4797 1367.89 69.3333C1355.92 59.187 1354.62 41.1057 1364.77 29.1382C1375.04 17.0406 1392.99 15.4797 1404.83 25.7561ZM1372.44 64C1381.42 71.6748 1395.07 70.6341 1402.88 61.5284C1410.55 52.4228 1409.51 38.7642 1400.54 31.0894C1391.56 23.2845 1377.9 24.4553 1370.23 33.4309C1362.29 42.5366 1363.33 56.1951 1372.44 64Z" fill="white"/>
<path d="M1178.6 344C1169.49 344 1162.1 336.613 1162.1 327.5C1162.1 318.387 1169.49 311 1178.6 311C1187.71 311 1195.1 318.387 1195.1 327.5C1195.1 336.613 1187.71 344 1178.6 344Z" fill="#FEFFFF" fill-opacity="0.5"/>
<path d="M1247.1 470C1242.13 470 1238.1 465.971 1238.1 461C1238.1 456.029 1242.13 452 1247.1 452C1252.07 452 1256.1 456.029 1256.1 461C1256.1 465.971 1252.07 470 1247.1 470Z" fill="#FEFFFF"/>
<path d="M1377.1 335C1372.13 335 1368.1 330.971 1368.1 326C1368.1 321.029 1372.13 317 1377.1 317C1382.07 317 1386.1 321.029 1386.1 326C1386.1 330.971 1382.07 335 1377.1 335Z" fill="white" fill-opacity="0.5"/>
<path d="M442.965 517.956L439 515.974C439.165 514.487 439.495 513 439.826 511.513C440.156 510.026 440.487 508.539 440.982 507.052L445.443 506.887C450.4 506.722 453.374 501.104 450.565 496.974L448.087 493.339C449.904 491.026 451.887 488.713 454.2 486.73L458 488.878C462.461 491.191 467.747 487.887 467.417 482.93L467.087 478.47C469.895 477.313 472.704 476.322 475.678 475.661L477.991 479.461C480.634 483.756 486.913 483.426 489.06 478.965L491.043 475C492.53 475.165 494.017 475.496 495.504 475.826C496.991 476.157 498.478 476.487 499.799 476.983L499.965 481.443C500.13 486.4 505.582 489.374 509.878 486.565L513.512 484.087C515.825 485.904 518.138 487.887 520.121 490.2L517.973 494C515.66 498.461 518.964 503.748 523.921 503.417L528.217 503.087C529.373 505.895 530.364 508.704 530.86 511.678L527.06 513.991C522.765 516.635 523.095 522.913 527.556 525.061L531.521 527.043C531.356 528.53 531.025 530.017 530.695 531.504C530.364 532.991 530.034 534.478 529.538 535.965L525.078 536.13C520.121 536.295 517.147 541.913 519.956 546.043L522.434 549.678C520.617 551.991 518.634 554.304 516.321 556.286L512.521 554.139C508.06 551.826 502.773 555.13 503.104 560.086L503.434 564.547C500.626 565.704 497.817 566.53 494.843 567.191L492.53 563.391C489.886 559.095 483.608 559.426 481.46 563.886L479.478 567.852C477.991 567.686 476.504 567.356 475.017 567.026C473.53 566.695 472.043 566.365 470.721 565.869L470.556 561.408C470.391 556.452 464.939 553.478 460.643 556.286L457.008 558.765C454.695 556.947 452.382 554.965 450.4 552.652L452.547 548.852C454.86 544.391 451.556 539.104 446.6 539.434L442.139 539.765C440.982 536.956 440.156 534.147 439.495 531.174L443.295 528.861C447.591 526.548 447.426 520.104 442.965 517.956ZM454.53 524.069C455.852 541.087 470.721 553.973 487.573 552.652C504.591 551.33 517.312 536.461 515.991 519.443C514.669 502.426 499.965 489.539 482.947 490.861C465.93 492.017 453.208 507.052 454.53 524.069ZM483.278 494.991C497.982 493.835 510.704 504.904 511.86 519.774C513.017 534.478 501.947 547.365 487.243 548.521C472.539 549.678 459.817 538.608 458.66 523.739C457.669 509.035 468.573 496.148 483.278 494.991ZM484.765 497.469C478.982 497.635 473.53 499.782 469.4 503.582C468.078 504.739 468.243 506.887 469.73 507.713L482.452 516.304C482.947 515.974 483.608 515.808 484.104 515.643L487.408 500.609C487.739 498.956 486.417 497.469 484.765 497.469ZM488.895 521.426C488.73 519.443 486.913 517.791 484.93 517.956C482.947 518.121 481.46 519.939 481.46 521.921C481.626 523.904 483.443 525.556 485.426 525.391C487.573 525.226 489.06 523.408 488.895 521.426ZM495.999 499.948C494.513 499.287 492.695 500.113 492.199 501.765L488.895 516.8C489.06 516.965 489.226 516.965 489.391 517.13C489.556 517.295 489.721 517.461 489.886 517.791L508.391 514.982C506.573 508.539 502.112 503.087 495.999 499.948ZM501.286 539.93C505.086 536.626 507.73 532.165 508.886 527.043C509.217 525.721 509.382 524.565 509.382 523.243C509.547 521.591 507.895 520.104 506.408 520.435L491.373 522.748C491.208 523.574 490.878 524.4 490.382 525.226L497.156 539.104C497.982 540.756 499.965 541.087 501.286 539.93ZM470.06 540.591C472.869 542.904 476.173 544.556 479.973 545.382C483.773 546.208 487.408 546.208 490.878 545.217C492.53 544.887 493.356 542.904 492.53 541.417L485.756 527.704C484.269 527.869 482.947 527.539 481.791 526.713L470.06 536.461C468.739 537.617 468.739 539.6 470.06 540.591ZM462.626 513.165C462.295 514.156 461.965 515.313 461.634 516.469C460.478 521.591 461.139 526.713 462.956 531.339C463.617 532.991 465.765 533.487 467.087 532.33L479.147 522.417C479.147 521.756 479.147 521.095 479.313 520.435L466.591 512.008C465.269 511.017 463.287 511.513 462.626 513.165Z" fill="white" fill-opacity="0.5"/>
</g>
</svg>
