<svg width="50" height="50" viewBox="0 0 50 50" fill="none" xmlns="http://www.w3.org/2000/svg">
<g opacity="0.8" clip-path="url(#clip0)">
<path d="M43.1399 36.6667C43.4046 35.2618 43.3978 33.8191 43.1199 32.4167L46.9366 23.2059C46.937 23.1998 46.937 23.1937 46.9366 23.1876C47.555 21.4943 48.4614 19.9206 49.6157 18.5359C49.9029 18.2325 50.0185 17.8051 49.9232 17.3984L48.3582 10.6401C48.3396 10.5694 48.3116 10.5016 48.2749 10.4384C48.2682 10.4259 48.2657 10.4109 48.2591 10.3992C48.2524 10.3876 48.2232 10.3592 48.2066 10.3376C48.1725 10.2876 48.1331 10.2415 48.0891 10.2001C48.0601 10.1797 48.0297 10.1613 47.9982 10.1451C47.9576 10.1152 47.9144 10.0889 47.8691 10.0667C47.8062 10.043 47.7408 10.027 47.6741 10.0192C47.6549 10.0192 47.6382 10.0067 47.6191 10.0051C47.4593 9.99441 47.2999 10.03 47.1599 10.1076C47.1474 10.1142 47.1324 10.1167 47.1199 10.1242H47.1116L41.2274 13.7967C40.8711 14.0174 40.6499 14.4027 40.6391 14.8217C40.4756 16.621 40.0016 18.3784 39.2382 20.0159V20.0251L37.3307 24.6359C36.3945 24.1382 35.3922 23.7762 34.3541 23.5609C34.747 20.8483 34.8915 18.1056 34.7857 15.3667C36.337 13.5055 37.0815 11.1023 36.8541 8.69006C36.3332 3.83339 31.9441 0.325891 31.7566 0.178391C31.4748 -0.0435316 31.0826 -0.0602216 30.7829 0.136958C30.4833 0.334137 30.3434 0.700939 30.4357 1.04756C30.8649 2.65922 30.4932 4.36006 27.3232 7.85756C25.899 9.2328 25.4475 11.3326 26.1807 13.1717C26.4611 13.8751 26.8627 14.5239 27.3674 15.0884C27.1657 16.3759 27.0074 17.5951 26.8982 18.7826C26.7103 20.7467 26.6618 22.7216 26.7532 24.6926C26.0098 25.0956 25.3138 25.5806 24.6782 26.1384L20.6366 8.85506C20.6366 8.83756 20.6199 8.82506 20.6149 8.80923C20.6013 8.75366 20.5818 8.69973 20.5566 8.64839L16.4282 1.02422C16.0151 0.261119 15.1423 -0.131018 14.2974 0.0668668C13.4525 0.264752 12.8445 1.00369 12.8132 1.87089L12.4999 10.5334C12.5001 10.5959 12.5071 10.6582 12.5207 10.7192C12.5207 10.7326 12.5207 10.7442 12.5207 10.7567L16.6441 28.3542C15.9936 28.3829 15.3479 28.4793 14.7174 28.6417L10.1816 17.6876C9.81785 16.8502 8.85318 16.4551 8.00656 16.7967L1.07406 19.6667C0.225618 20.0209 -0.177587 20.9937 0.171562 21.8442L6.32323 36.6842C2.71782 36.8735 -0.0807939 39.9001 0.0122646 43.5093C0.105323 47.1185 3.05619 49.9968 6.66656 50.0001H43.3332C45.715 49.9655 47.8974 48.663 49.0584 46.583C50.2194 44.5031 50.1825 41.9618 48.9617 39.9163C47.7409 37.8709 45.5217 36.6322 43.1399 36.6667ZM42.2907 15.0967L45.7841 12.9167L44.5474 15.9034C44.3711 16.3287 44.573 16.8163 44.9982 16.9926C45.4235 17.1688 45.9111 16.967 46.0874 16.5417L47.3241 13.5551L48.2499 17.5659C47.2593 18.7743 46.4456 20.1175 45.8332 21.5551C44.9644 21.9578 43.9667 21.9787 43.0818 21.6127C42.1969 21.2467 41.5054 20.5272 41.1749 19.6284C41.7602 18.1785 42.1359 16.6526 42.2907 15.0967ZM40.3741 21.6392C40.9254 22.3132 41.6408 22.8341 42.4516 23.1517C43.096 23.4289 43.7892 23.5751 44.4907 23.5817C44.6595 23.5811 44.8281 23.5708 44.9957 23.5509L42.3366 29.9676C41.5403 28.212 40.3085 26.6891 38.7582 25.5434L40.3741 21.6392ZM28.9574 15.6876L33.1441 15.9434C33.1699 16.7217 33.1607 17.5267 33.1349 18.3442C31.7402 18.4439 30.3385 18.3762 28.9599 18.1426C28.8549 18.1276 28.7524 18.1159 28.6482 18.1017C28.7316 17.3167 28.8332 16.5217 28.9557 15.6876H28.9574ZM28.5599 8.97673C30.7724 6.53589 31.9191 4.65839 32.1857 2.89339C33.7761 4.52968 34.8259 6.61469 35.1932 8.86672C35.3682 10.8272 34.7621 12.7775 33.5066 14.2934C31.8605 14.1934 30.2324 14.0934 28.6224 13.9934C27.9306 13.3467 27.5326 12.4457 27.5205 11.4987C27.5084 10.5518 27.8832 9.64093 28.5582 8.97673H28.5599ZM28.4966 19.7626L28.7382 19.7942C29.812 19.9603 30.896 20.0525 31.9824 20.0701C32.3274 20.0701 32.6907 20.0426 33.0549 20.0142C32.9791 21.0867 32.8549 22.2067 32.6974 23.3642C32.4916 23.3534 32.2899 23.3334 32.0832 23.3334C30.8251 23.3356 29.5764 23.5506 28.3899 23.9692C28.3515 22.5661 28.3865 21.162 28.4949 19.7626H28.4966ZM22.0507 29.5076L19.6666 19.3517C19.5551 18.9111 19.1112 18.6411 18.6686 18.7447C18.2261 18.8484 17.9483 19.2875 18.0441 19.7317L20.1866 28.8726C19.5975 28.6619 18.989 28.5103 18.3699 28.4201L14.7124 12.8117C15.2248 13.045 15.7811 13.166 16.3441 13.1667C16.3966 13.1667 16.4524 13.1592 16.5057 13.1567L17.0949 15.6726C17.1584 15.967 17.3759 16.2043 17.6637 16.2932C17.9515 16.382 18.2649 16.3086 18.4833 16.1012C18.7018 15.8938 18.7913 15.5846 18.7174 15.2926L18.1274 12.7751C18.6928 12.5248 19.1915 12.1451 19.5832 11.6667L23.3016 27.5659C22.8187 28.1682 22.3995 28.8189 22.0507 29.5076ZM16.9591 11.4242C15.8933 11.6309 14.8051 11.1952 14.1766 10.3101L14.2824 7.37506C14.5724 7.42921 14.8666 7.45711 15.1616 7.45839C15.4465 7.45959 15.7306 7.42799 16.0082 7.36422C16.5704 7.21659 17.0963 6.95507 17.5532 6.59589L18.9566 9.18589C18.7894 10.2605 18.0076 11.1372 16.9591 11.4259V11.4242ZM14.6766 1.68922C14.7901 1.66293 14.9072 1.71538 14.9632 1.81756L16.7499 5.12173C16.4276 5.4133 16.0427 5.62711 15.6249 5.74673C15.1978 5.82511 14.7585 5.8043 14.3407 5.68589L14.4766 1.93089C14.4811 1.81445 14.563 1.71545 14.6766 1.68922ZM8.64573 18.3334L9.2824 19.8717L6.19906 21.1484C5.83353 21.3019 5.62675 21.6917 5.70461 22.0804C5.78248 22.4691 6.12344 22.7492 6.5199 22.7501C6.62938 22.7498 6.73778 22.7283 6.83906 22.6867L9.9224 21.4092L10.5599 22.9492L9.0174 23.5884C8.64977 23.7405 8.44097 24.1313 8.51884 24.5215C8.59671 24.9117 8.93953 25.1924 9.3374 25.1917C9.4466 25.1913 9.5547 25.1698 9.65573 25.1284L11.1982 24.4892L11.8357 26.0292L8.7499 27.3084C8.38227 27.4605 8.17347 27.8513 8.25134 28.2415C8.32921 28.6317 8.67203 28.9124 9.0699 28.9117C9.17911 28.9114 9.28722 28.8899 9.38823 28.8484L12.4716 27.5717L13.1457 29.1992C10.4302 30.4387 8.43897 32.8623 7.7499 35.7667L1.7099 21.2034L8.64573 18.3334ZM43.3332 48.3334H6.66656C3.90514 48.3334 1.66656 46.0948 1.66656 43.3334C1.66656 40.572 3.90514 38.3334 6.66656 38.3334C7.14942 38.3318 7.62987 38.4014 8.0924 38.5401C8.34227 38.6155 8.61306 38.5696 8.82404 38.4159C9.03502 38.2622 9.16179 38.0185 9.16656 37.7576C9.22584 34.7876 10.9427 32.1008 13.6129 30.7993C16.2831 29.4977 19.4573 29.8005 21.8332 31.5834C22.0432 31.7397 22.3144 31.7882 22.5655 31.7145C22.8166 31.6408 23.0186 31.4534 23.1107 31.2084C24.7388 26.8694 29.2385 24.3171 33.7981 25.1464C38.3577 25.9757 41.6706 29.949 41.6666 34.5834C41.6682 35.5364 41.5263 36.4843 41.2457 37.3951C41.1581 37.6784 41.2278 37.987 41.4286 38.2053C41.6294 38.4236 41.931 38.5187 42.2207 38.4551C42.5861 38.3746 42.9591 38.3338 43.3332 38.3334C46.0947 38.3334 48.3332 40.572 48.3332 43.3334C48.3332 46.0948 46.0947 48.3334 43.3332 48.3334Z" fill="white"/>
<path d="M32.2375 13.0835C32.4991 13.0845 32.7459 12.9626 32.9042 12.7543C33.9446 11.3462 34.3466 9.56625 34.0125 7.84765C33.9414 7.55379 33.7168 7.32148 33.4255 7.2406C33.1342 7.15972 32.8219 7.24296 32.6095 7.45811C32.3971 7.67326 32.3179 7.98657 32.4025 8.27681C32.602 9.49801 32.3043 10.7483 31.5759 11.7485C31.3865 12.001 31.356 12.3388 31.4972 12.6212C31.6383 12.9035 31.9269 13.0818 32.2425 13.0818L32.2375 13.0835Z" fill="white"/>
<path d="M31.1416 38.3333C30.5219 38.3352 29.9107 38.4777 29.3541 38.75C27.855 36.6987 25.0558 36.0977 22.8469 37.353C20.6379 38.6083 19.7215 41.3205 20.7166 43.6583C20.8475 43.9656 21.1492 44.165 21.4832 44.165C21.5955 44.1652 21.7067 44.1425 21.8099 44.0983C22.0132 44.0117 22.1738 43.8478 22.2563 43.6428C22.3389 43.4377 22.3365 43.2083 22.2499 43.005C22.0685 42.5821 21.9749 42.1268 21.9749 41.6666C21.9749 39.8257 23.4673 38.3333 25.3082 38.3333C26.6012 38.3269 27.7787 39.0761 28.3207 40.25C28.3388 40.2771 28.3582 40.3033 28.3791 40.3283C28.3922 40.3569 28.407 40.3847 28.4232 40.4116C28.4382 40.43 28.4599 40.4383 28.4766 40.4558C28.5157 40.4964 28.559 40.5327 28.6057 40.5641C28.6474 40.5962 28.692 40.6241 28.7391 40.6475C28.7875 40.6678 28.8377 40.6834 28.8891 40.6941C28.9403 40.7076 28.9928 40.7157 29.0457 40.7183C29.154 40.7174 29.2614 40.6994 29.3641 40.665C29.3863 40.6609 29.4082 40.6556 29.4299 40.6491C29.4569 40.6316 29.4828 40.6124 29.5074 40.5916C29.5374 40.5783 29.5666 40.5633 29.5949 40.5466C30.0326 40.1926 30.5786 39.9997 31.1416 40C32.1159 40.0016 33.0006 40.5691 33.4082 41.4541C33.5992 41.8729 34.0936 42.0576 34.5124 41.8666C34.9312 41.6756 35.1159 41.1813 34.9249 40.7625C34.2463 39.2834 32.7688 38.3348 31.1416 38.3333Z" fill="white"/>
<path d="M14.7365 32.5426C14.6107 32.5834 11.6665 33.6018 11.6665 36.6668C11.6665 37.127 12.0396 37.5001 12.4998 37.5001C12.9601 37.5001 13.3332 37.127 13.3332 36.6668C13.4012 35.5043 14.1661 34.4986 15.2682 34.1226C15.7054 33.9758 15.9408 33.5023 15.794 33.0651C15.6472 32.6279 15.1737 32.3925 14.7365 32.5393V32.5426Z" fill="white"/>
<path d="M26.464 31.6415C26.5302 31.6583 26.5982 31.6667 26.6665 31.6665C27.0484 31.6661 27.3812 31.4061 27.474 31.0357C27.8576 29.4796 29.2351 28.3726 30.8373 28.3332C31.2976 28.332 31.6697 27.958 31.6686 27.4978C31.6674 27.0375 31.2934 26.6654 30.8332 26.6665C28.4646 26.698 26.4177 28.3289 25.8582 30.6307C25.7464 31.0771 26.0176 31.5297 26.464 31.6415Z" fill="white"/>
</g>
<defs>
<clipPath id="clip0">
<rect width="50" height="50" fill="white"/>
</clipPath>
</defs>
</svg>
