<svg width="31" height="30" viewBox="0 0 31 30" fill="none" xmlns="http://www.w3.org/2000/svg">
<g clip-path="url(#clip0)">
<path d="M29.973 8.82008C29.9028 7.22607 29.645 6.1302 29.2757 5.18061C28.8948 4.17264 28.3088 3.27022 27.5409 2.52002C26.7907 1.75816 25.8824 1.16615 24.8861 0.79117C23.931 0.421912 22.8409 0.16414 21.2468 0.0938599C19.6409 0.0176273 19.1311 0 15.058 0C10.985 0 10.4752 0.0176273 8.87521 0.0879078C7.2812 0.158188 6.18533 0.416188 5.23597 0.785218C4.22778 1.16615 3.32536 1.7522 2.57516 2.52002C1.8133 3.27022 1.22152 4.1786 0.846314 5.17488C0.477056 6.1302 0.219285 7.22011 0.149005 8.81413C0.0727726 10.42 0.0551453 10.9299 0.0551453 15.0029C0.0551453 19.076 0.0727726 19.5858 0.143053 21.1858C0.213333 22.7798 0.471333 23.8757 0.840591 24.8253C1.22152 25.8332 1.8133 26.7356 2.57516 27.4858C3.32536 28.2477 4.23373 28.8397 5.23002 29.2147C6.18533 29.584 7.27525 29.8417 8.86949 29.912C10.4692 29.9825 10.9793 29.9999 15.0523 29.9999C19.1254 29.9999 19.6352 29.9825 21.2352 29.912C22.8292 29.8417 23.925 29.584 24.8744 29.2147C26.8906 28.4352 28.4846 26.8412 29.2641 24.8253C29.6331 23.8699 29.8911 22.7798 29.9614 21.1858C30.0317 19.5858 30.0493 19.076 30.0493 15.0029C30.0493 10.9299 30.0433 10.42 29.973 8.82008ZM27.2715 21.0686C27.2069 22.5337 26.9608 23.3249 26.7557 23.8523C26.2516 25.1593 25.2144 26.1965 23.9074 26.7006C23.38 26.9057 22.5831 27.1518 21.1237 27.2162C19.5413 27.2867 19.0668 27.3041 15.064 27.3041C11.0612 27.3041 10.5807 27.2867 9.0041 27.2162C7.53897 27.1518 6.7478 26.9057 6.22036 26.7006C5.56998 26.4602 4.97797 26.0793 4.49746 25.5812C3.99931 25.0947 3.61838 24.5086 3.37801 23.8583C3.17289 23.3308 2.9268 22.5337 2.86247 21.0745C2.79196 19.4922 2.77456 19.0174 2.77456 15.0146C2.77456 11.0118 2.79196 10.5313 2.86247 8.95492C2.9268 7.48979 3.17289 6.69862 3.37801 6.17117C3.61838 5.52056 3.99931 4.92879 4.50341 4.44804C4.98965 3.9499 5.5757 3.56896 6.22631 3.32882C6.75375 3.1237 7.55087 2.87761 9.01005 2.81305C10.5924 2.74277 11.0672 2.72514 15.0697 2.72514C19.0784 2.72514 19.553 2.74277 21.1296 2.81305C22.5948 2.87761 23.3859 3.1237 23.9134 3.32882C24.5637 3.56896 25.1558 3.9499 25.6363 4.44804C26.1344 4.93451 26.5153 5.52056 26.7557 6.17117C26.9608 6.69862 27.2069 7.49551 27.2715 8.95492C27.3418 10.5373 27.3594 11.0118 27.3594 15.0146C27.3594 19.0174 27.3418 19.4862 27.2715 21.0686Z" fill="white"/>
<path d="M15.0581 7.29635C10.8035 7.29635 7.3515 10.7481 7.3515 15.0029C7.3515 19.2578 10.8035 22.7095 15.0581 22.7095C19.3129 22.7095 22.7647 19.2578 22.7647 15.0029C22.7647 10.7481 19.3129 7.29635 15.0581 7.29635ZM15.0581 20.002C12.2979 20.002 10.059 17.7633 10.059 15.0029C10.059 12.2425 12.2979 10.0039 15.0581 10.0039C17.8185 10.0039 20.0572 12.2425 20.0572 15.0029C20.0572 17.7633 17.8185 20.002 15.0581 20.002Z" fill="white"/>
<path d="M24.8687 6.99165C24.8687 7.9852 24.0632 8.79079 23.0694 8.79079C22.0758 8.79079 21.2702 7.9852 21.2702 6.99165C21.2702 5.99788 22.0758 5.19251 23.0694 5.19251C24.0632 5.19251 24.8687 5.99788 24.8687 6.99165Z" fill="white"/>
</g>
<defs>
<clipPath id="clip0">
<rect width="30" height="30" fill="white" transform="translate(0.00244141)"/>
</clipPath>
</defs>
</svg>
