<svg width="19" height="19" viewBox="0 0 19 19" fill="none" xmlns="http://www.w3.org/2000/svg">
<path d="M3.99712 10.925C3.68541 10.7745 3.33747 10.6875 2.96875 10.6875C1.65923 10.6875 0.59375 11.753 0.59375 13.0625C0.59375 14.372 1.65923 15.4375 2.96875 15.4375C3.7905 15.4375 4.51577 15.0177 4.94238 14.3815L7.18586 15.5046C7.14727 15.6741 7.125 15.8502 7.125 16.0312C7.125 17.3408 8.19048 18.4062 9.5 18.4062C10.8095 18.4062 11.875 17.3408 11.875 16.0312C11.875 15.539 11.7245 15.0815 11.4668 14.7018L14.6193 11.4056C15.0147 11.699 15.5022 11.875 16.0312 11.875C17.3408 11.875 18.4062 10.8095 18.4062 9.5C18.4062 8.19048 17.3408 7.125 16.0312 7.125C15.4832 7.125 14.9797 7.31322 14.5772 7.62612L11.3739 4.42284C11.6868 4.02028 11.875 3.51678 11.875 2.96875C11.875 1.65923 10.8095 0.59375 9.5 0.59375C8.19048 0.59375 7.125 1.65923 7.125 2.96875C7.125 3.14925 7.14697 3.3247 7.18556 3.49392L5.08012 4.26105C4.68528 3.49481 3.88817 2.96875 2.96875 2.96875C1.65923 2.96875 0.59375 4.03423 0.59375 5.34375C0.59375 6.65327 1.65923 7.71875 2.96875 7.71875C3.30659 7.71875 3.62752 7.64691 3.91875 7.51895L5.01155 9.35809L3.99712 10.925ZM2.96875 14.8438C1.98639 14.8438 1.1875 14.0449 1.1875 13.0625C1.1875 12.0801 1.98639 11.2812 2.96875 11.2812C3.95111 11.2812 4.75 12.0801 4.75 13.0625C4.75 14.0449 3.95111 14.8438 2.96875 14.8438ZM5.20689 13.8495C5.29387 13.6028 5.34375 13.3386 5.34375 13.0625C5.34375 12.3343 5.01363 11.6823 4.49617 11.2465L5.34998 9.9278L7.92419 14.2595C7.70747 14.4525 7.52608 14.6834 7.39159 14.9432L5.20689 13.8495ZM9.5 5.34375C10.048 5.34375 10.5515 5.15553 10.9541 4.84263L14.1577 8.0462C13.9656 8.2932 13.8219 8.5785 13.7391 8.88903L11.8741 8.63253C11.8738 8.62481 11.875 8.61709 11.875 8.60938C11.875 7.29986 10.8095 6.23438 9.5 6.23438C8.67825 6.23438 7.95269 6.65416 7.52637 7.29036L7.1722 7.11342L8.47192 5.10625C8.78334 5.25677 9.13128 5.34375 9.5 5.34375ZM9.79688 13.6767V10.9636C10.7617 10.8425 11.5467 10.1413 11.7925 9.22034L13.6574 9.47684C13.6574 9.48456 13.6562 9.49228 13.6562 9.5C13.6562 10.067 13.8563 10.5875 14.1891 10.9963L11.072 14.2556C10.7225 13.946 10.2829 13.7379 9.79688 13.6767ZM9.5 6.82812C10.4824 6.82812 11.2812 7.62702 11.2812 8.60938C11.2812 9.59173 10.4824 10.3906 9.5 10.3906C8.51764 10.3906 7.71875 9.59173 7.71875 8.60938C7.71875 7.62702 8.51764 6.82812 9.5 6.82812ZM7.26186 7.82236C7.17488 8.06906 7.125 8.33328 7.125 8.60938C7.125 9.81825 8.03344 10.8169 9.20312 10.9639V13.677C8.92169 13.7124 8.65598 13.7967 8.41403 13.9217L5.71009 9.37145L6.84742 7.61514L7.26186 7.82236ZM9.5 17.8125C8.51764 17.8125 7.71875 17.0136 7.71875 16.0312C7.71875 15.0489 8.51764 14.25 9.5 14.25C10.4824 14.25 11.2812 15.0489 11.2812 16.0312C11.2812 17.0136 10.4824 17.8125 9.5 17.8125ZM16.0312 7.71875C17.0136 7.71875 17.8125 8.51764 17.8125 9.5C17.8125 10.4824 17.0136 11.2812 16.0312 11.2812C15.0489 11.2812 14.25 10.4824 14.25 9.5C14.25 8.51764 15.0489 7.71875 16.0312 7.71875ZM9.5 1.1875C10.4824 1.1875 11.2812 1.98639 11.2812 2.96875C11.2812 3.95111 10.4824 4.75 9.5 4.75C8.51764 4.75 7.71875 3.95111 7.71875 2.96875C7.71875 1.98639 8.51764 1.1875 9.5 1.1875ZM7.38863 4.05145C7.5338 4.33319 7.73241 4.58227 7.97258 4.78473L6.63783 6.84623L5.20689 6.13077C5.29387 5.88406 5.34375 5.61984 5.34375 5.34375C5.34375 5.16325 5.32178 4.9878 5.28319 4.81858L7.38863 4.05145ZM1.1875 5.34375C1.1875 4.36139 1.98639 3.5625 2.96875 3.5625C3.95111 3.5625 4.75 4.36139 4.75 5.34375C4.75 6.32611 3.95111 7.125 2.96875 7.125C1.98639 7.125 1.1875 6.32611 1.1875 5.34375ZM4.42789 7.21377C4.6268 7.0582 4.80136 6.87295 4.94238 6.66277L6.31305 7.34795L5.37166 8.80175L4.42789 7.21377Z" fill="#444444" fill-opacity="0.9"/>
</svg>
