<svg width="100" height="100" viewBox="0 0 100 100" fill="none" xmlns="http://www.w3.org/2000/svg">
<g clip-path="url(#clip0)">
<path d="M10.4903 9.85291H89.5099V71.6176H10.4903V9.85291Z" fill="url(#paint0_linear)"/>
<path d="M10.4903 9.85291V14.5196C10.4903 17.109 12.5895 19.208 15.1787 19.208H81.6628V71.6176H89.5099V9.85291H10.4903Z" fill="url(#paint1_linear)"/>
<path d="M50 87.8427C48.9171 87.8427 48.0392 86.9649 48.0392 85.8819V78.8231C48.0392 77.7401 48.9171 76.8623 50 76.8623C51.0827 76.8623 51.9608 77.7401 51.9608 78.8231V85.8819C51.9608 86.9649 51.0827 87.8427 50 87.8427Z" fill="url(#paint2_linear)"/>
<path d="M91.8698 11.9281H8.1302C5.58922 11.9281 3.52942 9.86828 3.52942 7.32729V7.08455C3.52942 4.54357 5.58922 2.48376 8.1302 2.48376H91.8696C94.4106 2.48376 96.4704 4.54357 96.4704 7.08455V7.32729C96.4706 9.86828 94.4108 11.9281 91.8698 11.9281Z" fill="url(#paint3_linear)"/>
<path d="M85.2863 14.4118H14.7137C10.9914 14.4118 7.97394 11.3943 7.97394 7.67196V6.7398C7.97394 3.01745 10.9914 0 14.7137 0H85.2863C89.0086 0 92.0261 3.01745 92.0261 6.7398V7.67196C92.0261 11.3943 89.0086 14.4118 85.2863 14.4118Z" fill="url(#paint4_linear)"/>
<path d="M85.2863 0H77.4392C81.1616 0 84.179 3.01745 84.179 6.7398V7.67196C84.179 11.3943 81.1616 14.4118 77.4392 14.4118H85.2863C89.0086 14.4118 92.0261 11.3943 92.0261 7.67196V6.7398C92.0261 3.01745 89.0086 0 85.2863 0V0Z" fill="url(#paint5_linear)"/>
<path d="M91.8698 78.9869H8.1302C5.58922 78.9869 3.52942 76.9271 3.52942 74.3861V74.1434C3.52942 71.6024 5.58922 69.5426 8.1302 69.5426H91.8696C94.4106 69.5426 96.4704 71.6024 96.4704 74.1434V74.3861C96.4706 76.9271 94.4108 78.9869 91.8698 78.9869Z" fill="url(#paint6_linear)"/>
<path d="M85.2863 81.4706H14.7137C10.9914 81.4706 7.97394 78.4532 7.97394 74.7308V73.7986C7.97394 70.0763 10.9914 67.0588 14.7137 67.0588H85.2863C89.0086 67.0588 92.0261 70.0763 92.0261 73.7986V74.7308C92.0261 78.4532 89.0086 81.4706 85.2863 81.4706Z" fill="url(#paint7_linear)"/>
<path d="M85.2863 67.0588H77.4392C81.1616 67.0588 84.179 70.0763 84.179 73.7986V74.7308C84.179 78.4532 81.1616 81.4706 77.4392 81.4706H85.2863C89.0086 81.4706 92.0261 78.4532 92.0261 74.7308V73.7986C92.0261 70.0763 89.0086 67.0588 85.2863 67.0588Z" fill="url(#paint8_linear)"/>
<path d="M50.0653 100C45.7406 100 42.2222 96.4816 42.2222 92.1569C42.2222 87.8322 45.7406 84.3137 50.0653 84.3137C54.39 84.3137 57.9085 87.8322 57.9085 92.1569C57.9085 96.4816 54.3902 100 50.0653 100ZM50.0653 88.2353C47.903 88.2353 46.1438 89.9945 46.1438 92.1569C46.1438 94.3192 47.903 96.0784 50.0653 96.0784C52.2277 96.0784 53.9869 94.3192 53.9869 92.1569C53.9869 89.9945 52.2277 88.2353 50.0653 88.2353Z" fill="url(#paint9_linear)"/>
<path d="M33.3624 64.9023H23.7745C22.7727 64.9023 21.9608 64.0904 21.9608 63.0886V50.2455C21.9608 49.2437 22.7727 48.4318 23.7745 48.4318H33.3624C34.3641 48.4318 35.1761 49.2437 35.1761 50.2455V63.0886C35.1761 64.0904 34.3639 64.9023 33.3624 64.9023Z" fill="url(#paint10_linear)"/>
<path d="M54.7939 64.9023H45.2061C44.2043 64.9023 43.3924 64.0903 43.3924 63.0886V41.4568C43.3924 40.455 44.2043 39.6431 45.2061 39.6431H54.7939C55.7957 39.6431 56.6077 40.455 56.6077 41.4568V63.0888C56.6077 64.0903 55.7957 64.9023 54.7939 64.9023Z" fill="url(#paint11_linear)"/>
<path d="M76.2255 64.9024H66.6376C65.6359 64.9024 64.8239 64.0904 64.8239 63.0887V30.8337C64.8239 29.832 65.6359 29.02 66.6376 29.02H76.2255C77.2272 29.02 78.0392 29.832 78.0392 30.8337V63.0887C78.0392 64.0904 77.2272 64.9024 76.2255 64.9024Z" fill="url(#paint12_linear)"/>
<path d="M78.0073 18.8715L72.0473 17.3572C70.5498 16.9768 69.2504 18.4514 69.8163 19.889L70.3947 21.3588L21.8122 40.2814C20.8031 40.6745 20.3037 41.811 20.6967 42.8202C20.9986 43.5955 21.7394 44.0698 22.5243 44.0698C22.761 44.0698 23.0018 44.0266 23.2355 43.9357L71.831 25.008L72.4471 26.5735C73.0129 28.0114 74.9688 28.2047 75.8053 26.9057L79.1345 21.7355C79.8357 20.6464 79.2627 19.1906 78.0073 18.8715Z" fill="url(#paint13_linear)"/>
<path d="M78.0073 18.8715L72.0473 17.3572C70.7881 17.0374 69.6737 18.0295 69.6857 19.208H78.6963C78.4993 19.0562 78.2693 18.938 78.0073 18.8715Z" fill="url(#paint14_linear)"/>
</g>
<defs>
<linearGradient id="paint0_linear" x1="-29.8039" y1="40.7353" x2="63.3565" y2="40.7353" gradientUnits="userSpaceOnUse">
<stop stop-color="#F2FBFF"/>
<stop offset="0.593" stop-color="#FAF7F7"/>
<stop offset="1" stop-color="#F3EAE6"/>
</linearGradient>
<linearGradient id="paint1_linear" x1="12.2877" y1="40.7353" x2="90.1985" y2="40.7353" gradientUnits="userSpaceOnUse">
<stop stop-color="#F3EAE6"/>
<stop offset="1" stop-color="#CDBFBA"/>
</linearGradient>
<linearGradient id="paint2_linear" x1="48.0392" y1="82.3525" x2="51.9608" y2="82.3525" gradientUnits="userSpaceOnUse">
<stop stop-color="#CDBFBA"/>
<stop offset="1" stop-color="#766E6E"/>
</linearGradient>
<linearGradient id="paint3_linear" x1="2.16569" y1="7.20592" x2="106.72" y2="7.20592" gradientUnits="userSpaceOnUse">
<stop stop-color="#CDBFBA"/>
<stop offset="1" stop-color="#766E6E"/>
</linearGradient>
<linearGradient id="paint4_linear" x1="6.7406" y1="7.20588" x2="101.296" y2="7.20588" gradientUnits="userSpaceOnUse">
<stop stop-color="#F2FBFF"/>
<stop offset="0.593" stop-color="#FAF7F7"/>
<stop offset="1" stop-color="#F3EAE6"/>
</linearGradient>
<linearGradient id="paint5_linear" x1="77.4392" y1="7.20588" x2="93.0794" y2="7.20588" gradientUnits="userSpaceOnUse">
<stop stop-color="#F3EAE6"/>
<stop offset="1" stop-color="#CDBFBA"/>
</linearGradient>
<linearGradient id="paint6_linear" x1="2.16569" y1="74.2648" x2="106.72" y2="74.2648" gradientUnits="userSpaceOnUse">
<stop stop-color="#CDBFBA"/>
<stop offset="1" stop-color="#766E6E"/>
</linearGradient>
<linearGradient id="paint7_linear" x1="6.7406" y1="74.2647" x2="101.296" y2="74.2647" gradientUnits="userSpaceOnUse">
<stop stop-color="#F2FBFF"/>
<stop offset="0.593" stop-color="#FAF7F7"/>
<stop offset="1" stop-color="#F3EAE6"/>
</linearGradient>
<linearGradient id="paint8_linear" x1="77.4392" y1="74.2647" x2="93.0794" y2="74.2647" gradientUnits="userSpaceOnUse">
<stop stop-color="#F3EAE6"/>
<stop offset="1" stop-color="#CDBFBA"/>
</linearGradient>
<linearGradient id="paint9_linear" x1="42.2224" y1="92.1569" x2="57.9087" y2="92.1569" gradientUnits="userSpaceOnUse">
<stop stop-color="#CDBFBA"/>
<stop offset="1" stop-color="#766E6E"/>
</linearGradient>
<linearGradient id="paint10_linear" x1="22.0023" y1="56.6671" x2="34.9838" y2="56.6671" gradientUnits="userSpaceOnUse">
<stop stop-color="#FE8A6B"/>
<stop offset="0.593" stop-color="#FB6138"/>
<stop offset="1" stop-color="#EC5D36"/>
</linearGradient>
<linearGradient id="paint11_linear" x1="43.1373" y1="52.2727" x2="58.1904" y2="52.2727" gradientUnits="userSpaceOnUse">
<stop stop-color="#FFE177"/>
<stop offset="1" stop-color="#FEB137"/>
</linearGradient>
<linearGradient id="paint12_linear" x1="64.8239" y1="64.9024" x2="88.0976" y2="56.3308" gradientUnits="userSpaceOnUse">
<stop stop-color="#44A85F"/>
<stop offset="1" stop-color="#48D16E"/>
</linearGradient>
<linearGradient id="paint13_linear" x1="28" y1="44" x2="79" y2="25" gradientUnits="userSpaceOnUse">
<stop stop-color="#01D0FB"/>
<stop offset="0.6075" stop-color="#26A6FE"/>
<stop offset="1" stop-color="#0182FC"/>
</linearGradient>
<linearGradient id="paint14_linear" x1="38.7597" y1="18.2522" x2="78.4909" y2="18.2522" gradientUnits="userSpaceOnUse">
<stop stop-color="#01D0FB"/>
<stop offset="0.6075" stop-color="#26A6FE"/>
<stop offset="1" stop-color="#0182FC"/>
</linearGradient>
<clipPath id="clip0">
<rect width="100" height="100" fill="white"/>
</clipPath>
</defs>
</svg>
