<svg width="21" height="20" viewBox="0 0 21 20" fill="none" xmlns="http://www.w3.org/2000/svg">
<g clip-path="url(#clip0)">
<path d="M20.3206 7.70509C20.2517 7.4929 20.0685 7.33833 19.848 7.3063L13.6522 6.40528L10.8813 0.78705C10.7827 0.587012 10.5792 0.460449 10.3563 0.460449C10.1334 0.460449 9.92984 0.587012 9.8312 0.78705L7.06016 6.40524L0.864516 7.3063C0.644005 7.33833 0.460696 7.4929 0.391876 7.70501C0.322979 7.91719 0.380439 8.15005 0.540015 8.30567L5.02314 12.6789L3.96497 18.854C3.9273 19.0739 4.01763 19.296 4.19794 19.4271C4.37824 19.5582 4.61721 19.5755 4.81458 19.4717L10.3562 16.5561L15.8977 19.4716C15.9834 19.5167 16.0769 19.5389 16.1701 19.5389C16.2915 19.5389 16.4124 19.5012 16.5144 19.4271C16.6947 19.296 16.785 19.0738 16.7473 18.854L15.6888 12.6789L20.1724 8.30567C20.332 8.15001 20.3895 7.91716 20.3206 7.70509Z" fill="#FED42D"/>
<path d="M20.3206 7.7046C20.2517 7.49241 20.0685 7.33784 19.848 7.30581L13.6522 6.40479L10.8813 0.786562C10.7827 0.586523 10.5792 0.459961 10.3563 0.459961V16.5557L15.8978 19.4712C15.9834 19.5163 16.077 19.5385 16.1702 19.5385C16.2916 19.5385 16.4124 19.5008 16.5144 19.4266C16.6947 19.2955 16.785 19.0733 16.7474 18.8535L15.6888 12.6784L20.1724 8.30518C20.332 8.14952 20.3895 7.91667 20.3206 7.7046Z" fill="#FFECBE"/>
</g>
<defs>
<clipPath id="clip0">
<rect width="19.9861" height="20" fill="white" transform="translate(0.36319)"/>
</clipPath>
</defs>
</svg>
