<svg width="21" height="20" viewBox="0 0 21 20" fill="none" xmlns="http://www.w3.org/2000/svg">
<g clip-path="url(#clip0)">
<path d="M20.8394 7.70509C20.7705 7.4929 20.5873 7.33833 20.3667 7.3063L14.171 6.40528L11.4001 0.78705C11.3014 0.587012 11.0979 0.460449 10.875 0.460449C10.6522 0.460449 10.4486 0.587012 10.35 0.78705L7.57893 6.40524L1.38328 7.3063C1.16277 7.33833 0.979464 7.4929 0.910645 7.70501C0.841747 7.91719 0.899207 8.15005 1.05878 8.30567L5.54191 12.6789L4.48374 18.854C4.44607 19.0739 4.5364 19.296 4.7167 19.4271C4.89701 19.5582 5.13598 19.5755 5.33334 19.4717L10.875 16.5561L16.4165 19.4716C16.5022 19.5167 16.5957 19.5389 16.6889 19.5389C16.8103 19.5389 16.9312 19.5012 17.0331 19.4271C17.2134 19.296 17.3038 19.0738 17.2661 18.854L16.2076 12.6789L20.6912 8.30567C20.8508 8.15001 20.9083 7.91716 20.8394 7.70509Z" fill="#FED42D"/>
<path d="M20.8394 7.7046C20.7705 7.49241 20.5873 7.33784 20.3668 7.30581L14.171 6.40479L11.4001 0.786562C11.3015 0.586523 11.098 0.459961 10.8751 0.459961V16.5557L16.4166 19.4712C16.5022 19.5163 16.5958 19.5385 16.689 19.5385C16.8104 19.5385 16.9312 19.5008 17.0332 19.4266C17.2135 19.2955 17.3038 19.0733 17.2662 18.8535L16.2076 12.6784L20.6912 8.30518C20.8508 8.14952 20.9083 7.91667 20.8394 7.7046Z" fill="#FCBF29"/>
</g>
<defs>
<clipPath id="clip0">
<rect width="19.9861" height="20" fill="white" transform="translate(0.881958)"/>
</clipPath>
</defs>
</svg>
