<svg width="50" height="50" viewBox="0 0 50 50" fill="none" xmlns="http://www.w3.org/2000/svg">
<g opacity="0.8">
<mask id="mask0" mask-type="alpha" maskUnits="userSpaceOnUse" x="0" y="0" width="50" height="50">
<circle cx="25" cy="25" r="25" fill="#C4C4C4"/>
</mask>
<g mask="url(#mask0)">
<path d="M24.939 13.2511C25.4757 13.2511 25.9105 12.8163 25.9105 12.2796V10.7967C25.9105 10.26 25.4757 9.8252 24.939 9.8252C24.4024 9.8252 23.9675 10.26 23.9675 10.7967V12.2796C23.9675 12.8163 24.4024 13.2511 24.939 13.2511Z" fill="white"/>
<path d="M35.6207 14.2498C35.2411 13.8705 34.6261 13.8705 34.2467 14.2498L33.1981 15.2984C32.8187 15.6779 32.8187 16.2929 33.1981 16.6723C33.5778 17.0517 34.1927 17.0516 34.5721 16.6723L35.6207 15.6238C35.9999 15.2443 35.9999 14.6293 35.6207 14.2498Z" fill="white"/>
<path d="M37.5906 23.96C37.054 23.96 36.6191 24.3948 36.6191 24.9315C36.6191 25.4681 37.054 25.903 37.5906 25.903H39.0734C39.6101 25.903 40.0449 25.4681 40.0449 24.9315C40.0449 24.3948 39.6101 23.96 39.0734 23.96H37.5906Z" fill="white"/>
<path d="M34.5721 33.1907C34.1926 32.8114 33.5775 32.8114 33.1981 33.1907C32.8187 33.5702 32.8187 34.1853 33.1981 34.5647L34.2467 35.6132C34.6264 35.9926 35.2413 35.9925 35.6207 35.6132C36.0001 35.2337 36.0001 34.6187 35.6207 34.2393L34.5721 33.1907Z" fill="white"/>
<path d="M23.9675 37.5828V39.0656C23.9675 39.6023 24.4024 40.0371 24.939 40.0371C25.4757 40.0371 25.9105 39.6023 25.9105 39.0656V37.5828C25.9105 37.0462 25.4757 36.6113 24.939 36.6113C24.4024 36.6113 23.9675 37.0463 23.9675 37.5828Z" fill="white"/>
<path d="M15.306 33.1907L14.2575 34.2393C13.878 34.6188 13.878 35.2338 14.2575 35.6132C14.637 35.9926 15.252 35.9925 15.6313 35.6132L16.6799 34.5647C17.0593 34.1851 17.0593 33.5701 16.6799 33.1907C16.3006 32.8114 15.6854 32.8114 15.306 33.1907Z" fill="white"/>
<path d="M10.8045 23.96C10.268 23.96 9.83301 24.3948 9.83301 24.9315C9.83301 25.4681 10.268 25.903 10.8045 25.903H12.2874C12.8239 25.903 13.2589 25.4681 13.2589 24.9315C13.2589 24.3948 12.8239 23.96 12.2874 23.96H10.8045Z" fill="white"/>
<path d="M16.6801 15.2984L15.6315 14.2498C15.2521 13.8705 14.637 13.8705 14.2577 14.2498C13.8783 14.6293 13.8783 15.2443 14.2577 15.6238L15.3063 16.6723C15.6858 17.0517 16.3008 17.0516 16.6801 16.6723C17.0595 16.2929 17.0595 15.6779 16.6801 15.2984Z" fill="white"/>
<path d="M30.1631 24.9313C30.1631 24.3947 29.7283 23.9598 29.1916 23.9598H25.9105V16.7469C25.9105 16.2102 25.4757 15.7754 24.939 15.7754C24.4024 15.7754 23.9675 16.2102 23.9675 16.7469V24.9313C23.9675 25.468 24.4024 25.9029 24.939 25.9029H29.1916C29.7282 25.9029 30.1631 25.468 30.1631 24.9313Z" fill="white"/>
<path d="M43.3604 24.7711C43.896 24.7386 44.3038 24.2781 44.2713 23.7426C43.6533 13.5479 35.1616 5.56201 24.939 5.56201C14.2587 5.56201 5.56958 14.2511 5.56958 24.9316C5.56958 35.6119 14.2587 44.301 24.939 44.301C34.5075 44.301 42.6722 37.2904 44.0925 27.8299C44.1722 27.2993 43.8066 26.8046 43.2759 26.725C42.7467 26.6456 42.2507 27.0107 42.171 27.5415C40.8951 36.0408 33.5562 42.3581 24.939 42.3581C15.3301 42.3581 7.51259 34.5406 7.51259 24.9317C7.51259 15.3228 15.3301 7.50515 24.939 7.50515C34.136 7.50515 41.7758 14.6892 42.3318 23.8605C42.3641 24.3957 42.8242 24.8022 43.3604 24.7711Z" fill="white"/>
<path d="M24.9389 0C21.5217 0 18.1737 0.708938 15.0921 2.03471H-2.04901C-2.58553 2.03471 -3.02051 2.46956 -3.02051 3.00622C-3.02051 3.54288 -2.58553 3.97772 -2.04901 3.97772H11.4371C9.61369 5.1513 7.93506 6.56684 6.45501 8.20104C6.09491 8.59858 6.12522 9.21295 6.52289 9.57319C6.92068 9.93342 7.5348 9.90298 7.89517 9.50531C12.2478 4.69935 18.4601 1.94301 24.9389 1.94301C37.6149 1.94301 47.9275 12.2556 47.9275 24.9315C47.9275 37.6073 37.615 47.9199 24.9389 47.9199C12.263 47.9199 1.95048 37.6074 1.95048 24.9315C1.95048 20.4926 3.21848 16.1843 5.61719 12.4721C5.90838 12.0215 5.7791 11.4202 5.32845 11.129C4.87781 10.838 4.27651 10.967 3.98519 11.4177C1.38286 15.4447 0.00747132 20.1176 0.00747132 24.9315C0.00747132 33.7095 4.56783 41.4416 11.4434 45.8852H-2.04888C-2.5854 45.8852 -3.02038 46.3201 -3.02038 46.8567C-3.02038 47.3934 -2.5854 47.8282 -2.04888 47.8282H15.0787C18.1046 49.1364 21.4384 49.863 24.9391 49.863C38.6862 49.863 49.8706 38.6788 49.8706 24.9315C49.8706 11.1842 38.6862 0 24.9389 0Z" fill="white"/>
</g>
</g>
</svg>
