<svg width="21" height="22" viewBox="0 0 21 22" fill="none" xmlns="http://www.w3.org/2000/svg">
<path d="M10.5 14.1141C9.43995 14.1141 8.57751 13.2517 8.57751 12.1916C8.57751 11.1315 9.43995 10.269 10.5 10.269C11.5601 10.269 12.4226 11.1315 12.4226 12.1916C12.4226 13.2517 11.5601 14.1141 10.5 14.1141ZM10.5 11.0894C9.89227 11.0894 9.39783 11.5838 9.39783 12.1916C9.39783 12.7993 9.89227 13.2938 10.5 13.2938C11.1078 13.2938 11.6023 12.7994 11.6023 12.1916C11.6023 11.5838 11.1078 11.0894 10.5 11.0894Z" fill="white"/>
<path d="M12.9851 9.68444C12.7025 9.69223 12.4901 9.37571 12.6061 9.11719C12.7817 8.70651 13.3902 8.82791 13.3953 9.27428C13.3994 9.49454 13.2053 9.68813 12.9851 9.68444Z" fill="white"/>
<path d="M19.6863 0.806799C19.1051 0.806799 18.6109 1.18619 18.4382 1.71033H12.2634C11.9923 1.00031 11.3041 0.494629 10.4999 0.494629C9.69581 0.494629 9.00761 1.00027 8.73649 1.71033H2.56179C2.38912 1.18619 1.89488 0.806799 1.31369 0.806799C0.589312 0.806799 0 1.39611 0 2.12049C0 2.84482 0.589312 3.43418 1.31369 3.43418C1.89488 3.43418 2.38912 3.05478 2.56179 2.53064H4.89895C4.63202 2.7064 4.37985 2.90893 4.14594 3.13681C3.22288 4.03616 2.68677 5.22951 2.63091 6.50469C2.02141 6.68081 1.57438 7.24383 1.57438 7.90935C1.57438 8.71539 2.23014 9.37119 3.03618 9.37119C3.84222 9.37119 4.49802 8.71543 4.49802 7.90935C4.49802 7.24769 4.05616 6.68733 3.452 6.50777C3.5668 4.30568 5.42546 2.53064 7.64133 2.53064H8.61911C8.69544 3.50148 9.50984 4.26811 10.5 4.26811C11.4901 4.26811 12.3045 3.50148 12.3809 2.53064H13.3586C15.5723 2.53064 17.4327 4.30625 17.5478 6.50715C16.9426 6.68602 16.4997 7.24691 16.4997 7.90935C16.4997 8.71539 17.1555 9.37119 17.9616 9.37119C18.7676 9.37119 19.4234 8.71543 19.4234 7.90935C19.4234 7.24465 18.9774 6.68216 18.369 6.5053C18.3132 5.22791 17.7754 4.0326 16.85 3.13292C16.6172 2.90659 16.3663 2.70537 16.1009 2.5306H18.4382C18.6109 3.05474 19.1051 3.43414 19.6863 3.43414C20.4107 3.43418 21 2.84482 21 2.12049C21 1.39611 20.4107 0.806799 19.6863 0.806799ZM1.31369 2.61387C1.04163 2.61387 0.820312 2.39254 0.820312 2.12049C0.820312 1.84843 1.04163 1.62711 1.31369 1.62711C1.58575 1.62711 1.80707 1.84843 1.80707 2.12049C1.80707 2.39254 1.58575 2.61387 1.31369 2.61387ZM3.67771 7.90935C3.67771 8.26307 3.38994 8.55088 3.03618 8.55088C2.68246 8.55088 2.3947 8.26311 2.3947 7.90935C2.3947 7.55559 2.68246 7.26783 3.03618 7.26783C3.38994 7.26783 3.67771 7.55559 3.67771 7.90935ZM10.4999 3.44779C9.91192 3.44779 9.43351 2.96939 9.43351 2.38139C9.43351 1.79335 9.91192 1.31498 10.4999 1.31498C11.088 1.31498 11.5664 1.79339 11.5664 2.38139C11.5664 2.96939 11.088 3.44779 10.4999 3.44779ZM18.603 7.90935C18.603 8.26307 18.3152 8.55088 17.9615 8.55088C17.6078 8.55088 17.32 8.26311 17.32 7.90935C17.32 7.55559 17.6078 7.26783 17.9615 7.26783C18.3152 7.26783 18.603 7.55559 18.603 7.90935ZM19.6863 2.61387C19.4143 2.61387 19.193 2.39254 19.193 2.12049C19.193 1.84843 19.4143 1.62711 19.6863 1.62711C19.9584 1.62711 20.1797 1.84843 20.1797 2.12049C20.1797 2.39254 19.9583 2.61387 19.6863 2.61387Z" fill="white"/>
<path d="M14.1087 10.4835C14.0006 10.2845 13.7517 10.2108 13.5525 10.3189C13.3535 10.427 13.2798 10.676 13.3879 10.8751L13.8771 11.7757C14.1081 12.2009 14.1129 12.7111 13.89 13.1406L12.7209 15.393H8.27911L7.10992 13.1407C6.887 12.7112 6.8918 12.2009 7.12276 11.7757L10.0898 6.31377V8.84107C10.0898 9.0676 10.2735 9.25123 10.5 9.25123C10.7265 9.25123 10.9101 9.0676 10.9101 8.84107V6.31381L11.738 7.83766C11.8461 8.03675 12.095 8.11042 12.2942 8.0023C12.4932 7.89418 12.5669 7.64514 12.4588 7.44609L11.3079 5.32743C11.2361 5.19531 11.0978 5.11304 10.9475 5.11304H10.0526C9.90227 5.11304 9.76392 5.19527 9.69218 5.32743L6.40195 11.3842C6.04081 12.0491 6.0333 12.847 6.38189 13.5185L7.35495 15.3931H7.2408C7.01427 15.3931 6.83065 15.5767 6.83065 15.8032C6.83065 16.0298 7.01427 16.2134 7.2408 16.2134H7.50441L6.83614 18.8882C6.8055 19.0107 6.83307 19.1405 6.91079 19.24C6.98852 19.3396 7.10779 19.3978 7.23408 19.3978H13.7659C13.8921 19.3978 14.0114 19.3396 14.0891 19.24C14.1669 19.1405 14.1944 19.0107 14.1638 18.8882L13.4955 16.2134H13.7592C13.9857 16.2134 14.1694 16.0298 14.1694 15.8032C14.1694 15.5767 13.9857 15.3931 13.7592 15.3931H13.6451L14.6181 13.5185C14.9668 12.8469 14.9592 12.049 14.5981 11.3841L14.1087 10.4835ZM13.2406 18.5775H7.75924L8.34991 16.2134H12.6499L13.2406 18.5775Z" fill="white"/>
</svg>
