<svg width="20" height="20" viewBox="0 0 20 20" fill="none" xmlns="http://www.w3.org/2000/svg">
<g clip-path="url(#clip0)">
<path d="M9.5266 12.8054C8.56479 12.8054 7.7823 12.023 7.7823 11.0612C7.7823 10.0993 8.56479 9.31686 9.5266 9.31686C10.4884 9.31686 11.2709 10.0993 11.2709 11.0612C11.2709 12.023 10.4884 12.8054 9.5266 12.8054ZM9.5266 10.0612C8.97517 10.0612 8.52657 10.5098 8.52657 11.0612C8.52657 11.6126 8.97517 12.0612 9.5266 12.0612C10.078 12.0612 10.5266 11.6126 10.5266 11.0612C10.5266 10.5098 10.078 10.0612 9.5266 10.0612Z" fill="#444444" fill-opacity="0.8"/>
<path d="M11.7813 8.78657C11.5249 8.79364 11.3321 8.50647 11.4375 8.27191C11.5968 7.8993 12.1488 8.00945 12.1534 8.41444C12.1572 8.61427 11.981 8.78992 11.7813 8.78657Z" fill="#444444" fill-opacity="0.8"/>
<path d="M17.8612 0.73199C17.3339 0.73199 16.8855 1.07621 16.7288 1.55176H11.1265C10.8805 0.907561 10.2561 0.448761 9.52648 0.448761C8.79692 0.448761 8.17252 0.907524 7.92654 1.55176H2.32429C2.16763 1.07621 1.71921 0.73199 1.1919 0.73199C0.534678 0.73199 0 1.26667 0 1.92389C0 2.58107 0.534678 3.11579 1.1919 3.11579C1.71921 3.11579 2.16763 2.77157 2.32429 2.29602H4.44477C4.20259 2.45548 3.9738 2.63924 3.76158 2.84599C2.92409 3.66196 2.43768 4.74468 2.387 5.90164C1.83401 6.06143 1.42842 6.57225 1.42842 7.17607C1.42842 7.90738 2.02339 8.50239 2.7547 8.50239C3.48601 8.50239 4.08101 7.90742 4.08101 7.17607C4.08101 6.57575 3.68012 6.06735 3.13197 5.90443C3.23613 3.90649 4.92247 2.29602 6.93291 2.29602H7.82004C7.88929 3.17685 8.62819 3.8724 9.52652 3.8724C10.4248 3.8724 11.1637 3.17685 11.233 2.29602H12.1201C14.1286 2.29602 15.8166 3.90701 15.921 5.90387C15.3719 6.06615 14.9701 6.57504 14.9701 7.17607C14.9701 7.90738 15.565 8.50239 16.2964 8.50239C17.0277 8.50239 17.6227 7.90742 17.6227 7.17607C17.6227 6.573 17.2181 6.06266 16.666 5.90219C16.6154 4.74323 16.1275 3.65873 15.2879 2.84246C15.0766 2.63712 14.849 2.45455 14.6082 2.29598H16.7288C16.8855 2.77153 17.3339 3.11575 17.8612 3.11575C18.5184 3.11579 19.0531 2.58107 19.0531 1.92389C19.0531 1.26667 18.5184 0.73199 17.8612 0.73199ZM1.1919 2.37153C0.945064 2.37153 0.744262 2.17072 0.744262 1.92389C0.744262 1.67705 0.945064 1.47625 1.1919 1.47625C1.43873 1.47625 1.63953 1.67705 1.63953 1.92389C1.63953 2.17072 1.43873 2.37153 1.1919 2.37153ZM3.33675 7.17607C3.33675 7.497 3.07566 7.75812 2.7547 7.75812C2.43377 7.75812 2.17269 7.49704 2.17269 7.17607C2.17269 6.85511 2.43377 6.59402 2.7547 6.59402C3.07566 6.59402 3.33675 6.85511 3.33675 7.17607ZM9.52648 3.12814C8.99299 3.12814 8.55894 2.69409 8.55894 2.1606C8.55894 1.62708 8.99299 1.19306 9.52648 1.19306C10.06 1.19306 10.4941 1.62711 10.4941 2.1606C10.4941 2.69409 10.06 3.12814 9.52648 3.12814ZM16.8784 7.17607C16.8784 7.497 16.6173 7.75812 16.2963 7.75812C15.9754 7.75812 15.7143 7.49704 15.7143 7.17607C15.7143 6.85511 15.9754 6.59402 16.2963 6.59402C16.6173 6.59402 16.8784 6.85511 16.8784 7.17607ZM17.8612 2.37153C17.6144 2.37153 17.4136 2.17072 17.4136 1.92389C17.4136 1.67705 17.6144 1.47625 17.8612 1.47625C18.108 1.47625 18.3088 1.67705 18.3088 1.92389C18.3088 2.17072 18.108 2.37153 17.8612 2.37153Z" fill="#444444" fill-opacity="0.8"/>
<path d="M12.8007 9.51171C12.7026 9.33108 12.4767 9.26424 12.2961 9.36234C12.1155 9.46043 12.0486 9.68635 12.1467 9.86698L12.5906 10.6841C12.8002 11.0699 12.8045 11.5328 12.6022 11.9224L11.5415 13.966H7.51154L6.45075 11.9225C6.24849 11.5328 6.25285 11.0699 6.4624 10.6841L9.15439 5.72851V8.02151C9.15439 8.22704 9.321 8.39364 9.52652 8.39364C9.73201 8.39364 9.89865 8.22704 9.89865 8.02151V5.72855L10.6497 7.11113C10.7478 7.29176 10.9737 7.3586 11.1544 7.2605C11.335 7.16241 11.4018 6.93645 11.3037 6.75586L10.2595 4.83361C10.1944 4.71375 10.0689 4.6391 9.93252 4.6391H9.1206C8.98422 4.6391 8.8587 4.71371 8.79361 4.83361L5.80841 10.3288C5.48075 10.9321 5.47394 11.656 5.79022 12.2653L6.67306 13.9661H6.56949C6.36397 13.9661 6.19736 14.1327 6.19736 14.3382C6.19736 14.5437 6.36397 14.7103 6.56949 14.7103H6.80866L6.20235 17.1372C6.17455 17.2483 6.19956 17.3661 6.27008 17.4564C6.3406 17.5467 6.44881 17.5995 6.56339 17.5995H12.4896C12.6042 17.5995 12.7124 17.5467 12.7829 17.4564C12.8534 17.3661 12.8784 17.2484 12.8507 17.1372L12.2443 14.7103H12.4836C12.6891 14.7103 12.8557 14.5437 12.8557 14.3382C12.8557 14.1327 12.6891 13.9661 12.4836 13.9661H12.3801L13.2629 12.2653C13.5792 11.656 13.5724 10.9321 13.2447 10.3288L12.8007 9.51171ZM12.013 16.8553H7.03987L7.57577 14.7104H11.4771L12.013 16.8553Z" fill="#444444" fill-opacity="0.8"/>
</g>
<defs>
<clipPath id="clip0">
<rect width="19.0531" height="19.56" fill="white"/>
</clipPath>
</defs>
</svg>
