<svg width="27" height="17" viewBox="0 0 27 17" fill="none" xmlns="http://www.w3.org/2000/svg">
<path d="M26.7593 14.5382C26.6868 14.4166 26.2379 13.4412 24.0777 11.4363C21.8163 9.33689 22.1201 9.67779 24.8439 6.04771C26.5028 3.83692 27.1661 2.48682 26.9585 1.90965C26.761 1.35949 25.5409 1.50462 25.5409 1.50462L21.4838 1.52825C21.4838 1.52825 21.1834 1.48775 20.959 1.62107C20.7413 1.7527 20.6012 2.05647 20.6012 2.05647C20.6012 2.05647 19.9582 3.76773 19.1009 5.22246C17.2935 8.29225 16.5695 8.45426 16.2741 8.26356C15.5873 7.81972 15.7594 6.47805 15.7594 5.52623C15.7594 2.55095 16.21 1.31054 14.8802 0.989896C14.438 0.883575 14.114 0.812695 12.985 0.800881C11.537 0.785693 10.3101 0.805944 9.61646 1.14516C9.15405 1.3713 8.79796 1.8759 9.01566 1.90459C9.28399 1.94003 9.89154 2.06829 10.2139 2.50707C10.6307 3.07243 10.6155 4.34489 10.6155 4.34489C10.6155 4.34489 10.8552 7.84672 10.0569 8.28212C9.50845 8.58083 8.75745 7.9716 7.14577 5.18533C6.32053 3.75929 5.69611 2.18136 5.69611 2.18136C5.69611 2.18136 5.57629 1.88771 5.36196 1.73076C5.10206 1.54006 4.73754 1.47931 4.73754 1.47931L0.879629 1.50293C0.879629 1.50293 0.300774 1.51981 0.0881332 1.77127C-0.100881 1.99572 0.0729446 2.45813 0.0729446 2.45813C0.0729446 2.45813 3.09379 9.52422 6.51292 13.0868C9.65021 16.3523 13.2111 16.138 13.2111 16.138H14.8245C14.8245 16.138 15.3122 16.084 15.5603 15.8157C15.7898 15.5693 15.7813 15.1069 15.7813 15.1069C15.7813 15.1069 15.7493 12.9417 16.7551 12.6227C17.7457 12.3088 19.0182 14.7154 20.3666 15.6419C21.3859 16.3422 22.1606 16.1887 22.1606 16.1887L25.767 16.138C25.767 16.138 27.6538 16.0216 26.7593 14.5382Z" fill="#65CBE0"/>
</svg>
