<svg width="31" height="30" viewBox="0 0 31 30" fill="none" xmlns="http://www.w3.org/2000/svg">
<g clip-path="url(#clip0)">
<path d="M29.735 21.7089C29.6544 21.5739 29.1556 20.4901 26.7554 18.2624C24.2427 15.9297 24.5803 16.3085 27.6067 12.2751C29.45 9.81864 30.1869 8.31853 29.9563 7.67723C29.7369 7.06593 28.3812 7.2272 28.3812 7.2272L23.8733 7.25345C23.8733 7.25345 23.5396 7.20844 23.2902 7.35658C23.0483 7.50284 22.8926 7.84037 22.8926 7.84037C22.8926 7.84037 22.1782 9.74176 21.2256 11.3581C19.2174 14.769 18.4129 14.949 18.0848 14.7371C17.3216 14.244 17.5129 12.7532 17.5129 11.6957C17.5129 8.38978 18.0135 7.01155 16.5359 6.65528C16.0446 6.53714 15.6846 6.45839 14.4301 6.44526C12.8213 6.42839 11.458 6.45089 10.6874 6.82779C10.1736 7.07906 9.77792 7.63973 10.0198 7.6716C10.318 7.71098 10.993 7.85349 11.3512 8.34103C11.8143 8.9692 11.7974 10.3831 11.7974 10.3831C11.7974 10.3831 12.0637 14.274 11.1768 14.7578C10.5674 15.0897 9.73291 14.4127 7.94216 11.3169C7.02522 9.73238 6.33142 7.97913 6.33142 7.97913C6.33142 7.97913 6.19828 7.65285 5.96014 7.47846C5.67137 7.26657 5.26634 7.19907 5.26634 7.19907L0.979776 7.22532C0.979776 7.22532 0.336604 7.24407 0.100337 7.52347C-0.109679 7.77286 0.0834604 8.28665 0.0834604 8.28665C0.0834604 8.28665 3.43996 16.1379 7.23898 20.0963C10.7249 23.7247 14.6814 23.4865 14.6814 23.4865H16.474C16.474 23.4865 17.0159 23.4265 17.2916 23.1284C17.5466 22.8546 17.5372 22.3408 17.5372 22.3408C17.5372 22.3408 17.5016 19.935 18.6192 19.5806C19.7199 19.2318 21.1338 21.9058 22.632 22.9352C23.7646 23.7134 24.6253 23.5428 24.6253 23.5428L28.6324 23.4865C28.6324 23.4865 30.7288 23.3571 29.735 21.7089Z" fill="white"/>
</g>
<defs>
<clipPath id="clip0">
<rect width="30" height="30" fill="white" transform="translate(0.00244141)"/>
</clipPath>
</defs>
</svg>
