<svg width="23" height="31" viewBox="0 0 23 31" fill="none" xmlns="http://www.w3.org/2000/svg">
<path d="M22.9383 30.1844H1.72784V23.0249L15.3498 12.7121C17.0771 11.4043 16.6609 9.58082 16.4922 9.05305C16.3297 8.54473 15.6379 6.88099 13.559 6.82029C13.5127 6.819 13.4311 6.81825 13.3985 6.81804H10.9899C7.44183 6.81804 7.16618 10.706 7.16618 11.8976H0.882324C0.882324 5.20692 5.03869 0.53418 10.9899 0.53418L13.434 0.534287C13.434 0.534287 13.6394 0.536113 13.7417 0.539013C17.805 0.657715 21.2338 3.24862 22.4778 7.13955C23.7376 11.0806 22.4286 15.2344 19.1429 17.722L10.9818 23.9006H22.9384V30.1844H22.9383Z" fill="#F8FFFB"/>
</svg>
