<svg width="21" height="30" viewBox="0 0 21 30" fill="none" xmlns="http://www.w3.org/2000/svg">
<path d="M18.128 3.55941C16.4047 1.63881 13.5263 0.492188 10.4284 0.492188C9.80058 0.492188 9.17088 0.549873 8.55685 0.663633L8.36768 0.698545C6.48265 1.04681 4.77496 1.91327 3.42897 3.20405C2.11015 4.4697 1.22907 6.05933 0.880918 7.80096L0.773926 8.33646L7.13835 8.81803L7.26779 8.48352C7.63668 7.53069 8.52592 6.81665 9.58843 6.62018L9.7776 6.58527C10.9779 6.36355 12.2106 6.76842 12.9952 7.64284C14.0356 8.80181 13.9317 10.6638 12.7682 11.7089C12.2047 12.2153 9.43062 12.7999 8.50787 12.7615L8.00374 12.7399V17.6725L8.50787 17.6509C9.43675 17.6119 12.2049 18.1973 12.7683 18.7035C13.9317 19.7486 14.0356 21.6106 12.9951 22.7697C12.2106 23.644 10.9778 24.049 9.77749 23.8271L9.58853 23.7922C8.52592 23.5957 7.63668 22.8817 7.26779 21.9289L7.13835 21.5944L0.773926 22.0759L0.880918 22.6114C1.22897 24.3531 2.11004 25.9427 3.42907 27.2085C4.77485 28.4992 6.48265 29.3656 8.36768 29.7139L8.55664 29.7488C9.17088 29.8625 9.80058 29.9202 10.4284 29.9202C13.5263 29.9202 16.4047 28.7736 18.1279 26.8531C21.0318 23.6173 20.8949 18.5867 17.8801 15.2062C20.8949 11.8257 21.0319 6.79506 18.128 3.55941Z" fill="#F8FFFB"/>
</svg>
