<?xml version="1.0" standalone="no"?>
<!DOCTYPE svg PUBLIC "-//W3C//DTD SVG 20010904//EN"
 "http://www.w3.org/TR/2001/REC-SVG-20010904/DTD/svg10.dtd">
<svg version="1.0" xmlns="http://www.w3.org/2000/svg"
 width="369.000000pt" height="369.000000pt" viewBox="0 0 369.000000 369.000000"
 preserveAspectRatio="xMidYMid meet">
<metadata>
Created by potrace 1.11, written by Peter Selinger 2001-2013
</metadata>
<g transform="translate(0.000000,369.000000) scale(0.100000,-0.100000)"
fill="#000000" stroke="none">
<path d="M2542 3520 c-309 -81 -518 -369 -499 -686 l5 -92 -81 38 c-217 100
-342 125 -607 124 -197 0 -209 -1 -320 -31 -271 -74 -470 -191 -661 -391 -264
-275 -391 -612 -376 -997 11 -275 80 -488 234 -719 194 -291 510 -502 863
-577 138 -29 390 -32 523 -6 228 46 457 154 627 296 95 79 86 76 119 51 92
-65 262 -118 408 -127 627 -37 1080 588 852 1178 -39 101 -96 188 -183 278
-199 205 -460 295 -756 258 l-65 -8 -28 56 -27 55 23 -4 c148 -31 323 1 464
85 72 44 178 150 222 222 167 281 115 626 -127 847 -158 146 -400 205 -610
150z"/>
</g>
</svg>
